<svg xmlns="http://www.w3.org/2000/svg" xmlns:xlink="http://www.w3.org/1999/xlink" width="670" height="722" viewBox="0 0 670 722">
  <defs>
    <clipPath id="clip-QLTS-icon-2">
      <rect width="670" height="722"/>
    </clipPath>
  </defs>
  <g id="QLTS-icon-2" clip-path="url(#clip-QLTS-icon-2)">
    <g id="Group_47295" data-name="Group 47295" transform="translate(383 -739)">
      <circle id="Ellipse_4037" data-name="Ellipse 4037" cx="16" cy="16" r="16" transform="translate(81 1031)" fill="#1ac871" opacity="0.3"/>
      <circle id="Ellipse_4038" data-name="Ellipse 4038" cx="11" cy="11" r="11" transform="translate(86 1036)" fill="#1ac871"/>
      <path id="Path_84656" data-name="Path 84656" d="M103,1062.286l3.844,3.844,6.606-6.605" transform="translate(-11.499 -15.025)" fill="none" stroke="#fff" stroke-linecap="round" stroke-linejoin="round" stroke-width="2"/>
    </g>
    <g id="Group_47296" data-name="Group 47296" transform="translate(-215 -688)">
      <circle id="Ellipse_4037-2" data-name="Ellipse 4037" cx="16" cy="16" r="16" transform="translate(731 980)" fill="#1aa4c8" opacity="0.3"/>
      <circle id="Ellipse_4038-2" data-name="Ellipse 4038" cx="11" cy="11" r="11" transform="translate(736 985)" fill="#1aa4c8"/>
      <g id="Group_47291" data-name="Group 47291" transform="translate(650 8.601)">
        <path id="Path_84657" data-name="Path 84657" d="M97,986.682V992.8" fill="none" stroke="#fff" stroke-linecap="round" stroke-width="2"/>
        <g id="Ellipse_4039" data-name="Ellipse 4039" transform="translate(96 982)" fill="#fff" stroke="#fff" stroke-width="1">
          <circle cx="1" cy="1" r="1" stroke="none"/>
          <circle cx="1" cy="1" r="0.5" fill="none"/>
        </g>
      </g>
    </g>
    <g id="Group_47297" data-name="Group 47297" transform="translate(-163 -768)">
      <circle id="Ellipse_4040" data-name="Ellipse 4040" cx="16" cy="16" r="16" transform="translate(731 1060)" fill="#ff5252" opacity="0.3"/>
      <circle id="Ellipse_4041" data-name="Ellipse 4041" cx="11" cy="11" r="11" transform="translate(736 1065)" fill="#ff5252"/>
      <path id="Path_84657-2" data-name="Path 84657" d="M97,986.682v7.4" transform="translate(1378.83 307.221) rotate(45)" fill="none" stroke="#fff" stroke-linecap="round" stroke-width="2"/>
      <path id="Path_84658" data-name="Path 84658" d="M97,986.682v7.4" transform="translate(1516.009 1707.83) rotate(135)" fill="none" stroke="#fff" stroke-linecap="round" stroke-width="2"/>
    </g>
    <g id="Group_47298" data-name="Group 47298" transform="translate(-111 -848)">
      <circle id="Ellipse_4042" data-name="Ellipse 4042" cx="16" cy="16" r="16" transform="translate(731 1140)" fill="#ffae04" opacity="0.3"/>
      <circle id="Ellipse_4043" data-name="Ellipse 4043" cx="11" cy="11" r="11" transform="translate(736 1145)" fill="#ffae04"/>
      <path id="Path_84657-3" data-name="Path 84657" d="M97,986.682V992.8" transform="translate(650 164.601)" fill="none" stroke="#fff" stroke-linecap="round" stroke-width="2"/>
      <g id="Ellipse_4039-2" data-name="Ellipse 4039" transform="translate(746 1159.601)" fill="#fff" stroke="#fff" stroke-width="1">
        <circle cx="1" cy="1" r="1" stroke="none"/>
        <circle cx="1" cy="1" r="0.5" fill="none"/>
      </g>
    </g>
    <g id="Rectangle_23008" data-name="Rectangle 23008" transform="translate(20 168)" fill="none" stroke="#000" stroke-width="0.1">
      <rect width="128" height="128" stroke="none"/>
      <rect x="0.05" y="0.05" width="127.9" height="127.9" fill="none"/>
    </g>
    <g id="Rectangle_23009" data-name="Rectangle 23009" transform="translate(168 168)" fill="none" stroke="#000" stroke-width="0.1">
      <rect width="128" height="128" stroke="none"/>
      <rect x="0.05" y="0.05" width="127.9" height="127.9" fill="none"/>
    </g>
    <g id="Rectangle_23007" data-name="Rectangle 23007" transform="translate(316 168)" fill="none" stroke="#000" stroke-width="0.1">
      <rect width="128" height="128" stroke="none"/>
      <rect x="0.05" y="0.05" width="127.9" height="127.9" fill="none"/>
    </g>
    <g id="Rectangle_23010" data-name="Rectangle 23010" transform="translate(464 156)" fill="none" stroke="#000" stroke-width="0.1">
      <rect width="48" height="48" stroke="none"/>
      <rect x="0.05" y="0.05" width="47.9" height="47.9" fill="none"/>
    </g>
    <g id="Rectangle_23010-2" data-name="Rectangle 23010" transform="translate(532 156)" fill="none" stroke="#000" stroke-width="0.1">
      <rect width="48" height="48" stroke="none"/>
      <rect x="0.05" y="0.05" width="47.9" height="47.9" fill="none"/>
    </g>
    <g id="Rectangle_23010-3" data-name="Rectangle 23010" transform="translate(600 156)" fill="none" stroke="#000" stroke-width="0.1">
      <rect width="48" height="48" stroke="none"/>
      <rect x="0.05" y="0.05" width="47.9" height="47.9" fill="none"/>
    </g>
    <g id="Rectangle_23010-4" data-name="Rectangle 23010" transform="translate(464 224)" fill="none" stroke="#000" stroke-width="0.1">
      <rect width="48" height="48" stroke="none"/>
      <rect x="0.05" y="0.05" width="47.9" height="47.9" fill="none"/>
    </g>
    <g id="Rectangle_24047" data-name="Rectangle 24047" transform="translate(464 344)" fill="none" stroke="#000" stroke-width="0.1">
      <rect width="32" height="32" stroke="none"/>
      <rect x="0.05" y="0.05" width="31.9" height="31.9" fill="none"/>
    </g>
    <g id="Rectangle_24051" data-name="Rectangle 24051" transform="translate(464 396)" fill="none" stroke="#000" stroke-width="0.1">
      <rect width="32" height="32" stroke="none"/>
      <rect x="0.05" y="0.05" width="31.9" height="31.9" fill="none"/>
    </g>
    <g id="Rectangle_24055" data-name="Rectangle 24055" transform="translate(464 448)" fill="none" stroke="#000" stroke-width="0.1">
      <rect width="32" height="32" stroke="none"/>
      <rect x="0.05" y="0.05" width="31.9" height="31.9" fill="none"/>
    </g>
    <g id="Rectangle_24048" data-name="Rectangle 24048" transform="translate(516 344)" fill="none" stroke="#000" stroke-width="0.1">
      <rect width="32" height="32" stroke="none"/>
      <rect x="0.05" y="0.05" width="31.9" height="31.9" fill="none"/>
    </g>
    <g id="Rectangle_24052" data-name="Rectangle 24052" transform="translate(516 396)" fill="none" stroke="#000" stroke-width="0.1">
      <rect width="32" height="32" stroke="none"/>
      <rect x="0.05" y="0.05" width="31.9" height="31.9" fill="none"/>
    </g>
    <g id="Rectangle_24056" data-name="Rectangle 24056" transform="translate(516 448)" fill="none" stroke="#000" stroke-width="0.1">
      <rect width="32" height="32" stroke="none"/>
      <rect x="0.05" y="0.05" width="31.9" height="31.9" fill="none"/>
    </g>
    <g id="Rectangle_24049" data-name="Rectangle 24049" transform="translate(568 344)" fill="none" stroke="#000" stroke-width="0.1">
      <rect width="32" height="32" stroke="none"/>
      <rect x="0.05" y="0.05" width="31.9" height="31.9" fill="none"/>
    </g>
    <g id="Rectangle_24053" data-name="Rectangle 24053" transform="translate(568 396)" fill="none" stroke="#000" stroke-width="0.1">
      <rect width="32" height="32" stroke="none"/>
      <rect x="0.05" y="0.05" width="31.9" height="31.9" fill="none"/>
    </g>
    <g id="Rectangle_24057" data-name="Rectangle 24057" transform="translate(568 448)" fill="none" stroke="#000" stroke-width="0.1">
      <rect width="32" height="32" stroke="none"/>
      <rect x="0.05" y="0.05" width="31.9" height="31.9" fill="none"/>
    </g>
    <g id="Rectangle_24050" data-name="Rectangle 24050" transform="translate(620 344)" fill="none" stroke="#000" stroke-width="0.1">
      <rect width="32" height="32" stroke="none"/>
      <rect x="0.05" y="0.05" width="31.9" height="31.9" fill="none"/>
    </g>
    <g id="Rectangle_24054" data-name="Rectangle 24054" transform="translate(620 396)" fill="none" stroke="#000" stroke-width="0.1">
      <rect width="32" height="32" stroke="none"/>
      <rect x="0.05" y="0.05" width="31.9" height="31.9" fill="none"/>
    </g>
    <g id="Rectangle_24058" data-name="Rectangle 24058" transform="translate(620 448)" fill="none" stroke="#000" stroke-width="0.1">
      <rect width="32" height="32" stroke="none"/>
      <rect x="0.05" y="0.05" width="31.9" height="31.9" fill="none"/>
    </g>
    <g id="Rectangle_23010-5" data-name="Rectangle 23010" transform="translate(532 224)" fill="none" stroke="#000" stroke-width="0.1">
      <rect width="48" height="48" stroke="none"/>
      <rect x="0.05" y="0.05" width="47.9" height="47.9" fill="none"/>
    </g>
    <g id="Rectangle_23010-6" data-name="Rectangle 23010" transform="translate(600 224)" fill="none" stroke="#000" stroke-width="0.1">
      <rect width="48" height="48" stroke="none"/>
      <rect x="0.05" y="0.05" width="47.9" height="47.9" fill="none"/>
    </g>
    <g id="Group_47276" data-name="Group 47276" transform="translate(0 -660)">
      <rect id="Rectangle_23011" data-name="Rectangle 23011" width="256" height="128" transform="translate(20 976)" fill="none"/>
      <g id="Group_47273" data-name="Group 47273" transform="translate(-2474.669 2246.641)">
        <g id="Group_31267" data-name="Group 31267" transform="translate(2533.191 -1257.641)" opacity="0.34">
          <g id="Group_31266" data-name="Group 31266" transform="translate(0 0)">
            <g id="Group_31256" data-name="Group 31256" transform="translate(127.339 47.434)" opacity="0.6">
              <path id="Path_71039" data-name="Path 71039" d="M554.492,237.61a28.807,28.807,0,0,1-13.482,31.369,30.631,30.631,0,0,1-7.178,2.963c-.41.654-.854,1.286-1.326,1.9h21.462a40.552,40.552,0,0,0,8.893-30.179,44.089,44.089,0,0,0-10.8-23.94c-.087.469-.161.94-.215,1.413C551.2,226.764,553.268,232.209,554.492,237.61Z" transform="translate(-532.505 -219.723)" fill="#1aa4c8"/>
            </g>
            <g id="Group_31257" data-name="Group 31257" transform="translate(23.022 83.292)" opacity="0.41">
              <path id="Path_71040" data-name="Path 71040" d="M173.22,380.752c-1.259-1.74-2.244-3.957-3.58-5.734-2.86.582-5.684,1.43-8.541,2.162a76.81,76.81,0,0,1-17.9,2.695c-6.7.092-13.537-1.2-19.367-4.644a25.767,25.767,0,0,1-10.469-11.43,35,35,0,0,0,7.023,18.26h53.849Q173.707,381.424,173.22,380.752Z" transform="translate(-113.362 -363.801)" fill="#1aa4c8"/>
            </g>
            <g id="Group_31258" data-name="Group 31258" transform="translate(80.187 3.381)" opacity="0.41">
              <path id="Path_71041" data-name="Path 71041" d="M354.233,48.932c1.629-.056,3.38-.153,5.29-.3,8.916-.675,17.749,1.357,26.313,4.162q1.239.406,2.464.873a33.14,33.14,0,0,0-13.566-9.006,38.469,38.469,0,0,0-31.684,3.451A81.361,81.361,0,0,1,354.233,48.932Z" transform="translate(-343.05 -42.721)" fill="#1aa4c8"/>
            </g>
            <g id="Group_31259" data-name="Group 31259" transform="translate(18.386 6.289)" opacity="0.35">
              <path id="Path_71042" data-name="Path 71042" d="M109.624,142.908c5.813,3.366,12.641,4.652,19.345,4.6a79.1,79.1,0,0,0,17.913-2.521c2.86-.7,5.688-1.5,8.551-2.053a6.881,6.881,0,0,0-4.759-2.97c-8.3-.987-17.041,2.436-25.308,3.017-5.555.391-11.455-.362-15.944-3.683a20.909,20.909,0,0,1-6.486-8.6,30,30,0,0,1-.547-21.945c1.718-4.79,5.893-8.429,7.353-13.309,1.22-4.076-.194-8.331.2-12.45a11.633,11.633,0,0,1,.508-2.5c1.43-4.38,8.3-10.707,12.505-12.821a72.9,72.9,0,0,1,31.348-7.784c-6.1-1.021-11.877-2.856-22.107-5.029-12.15-2.581-25.8,6.336-32.969,16.708A24.64,24.64,0,0,0,97.3,74.886a26.4,26.4,0,0,0-2.03,16.666c1.351,6.547,5.529,11.592,4.036,18.562A121.352,121.352,0,0,0,97.687,122.5a17.668,17.668,0,0,0,1.523,9.284A25.281,25.281,0,0,0,109.624,142.908Z" transform="translate(-94.736 -54.408)" fill="#1aa4c8"/>
            </g>
            <g id="Group_31260" data-name="Group 31260" transform="translate(91.37 9.164)" opacity="0.47">
              <path id="Path_71043" data-name="Path 71043" d="M393.273,66.087c-1.911.145-3.662.242-5.291.3a96.6,96.6,0,0,1,16.66,3.938l20.794,6.839a22.715,22.715,0,0,1,15.641,22.85c0,.067-.008.135-.012.2a34.184,34.184,0,0,1-5.653,16.681c-2.969,4.43-7.066,9.386-8.092,14.823-.817,4.333.948,8.713,1.163,13.122a19.975,19.975,0,0,1-3.2,11.607,30.63,30.63,0,0,0,7.178-2.963,28.807,28.807,0,0,0,13.482-31.369c-1.223-5.4-3.289-10.846-2.648-16.474.054-.473.128-.944.215-1.413.634-3.423,1.986-6.768,1.7-10.227a16.373,16.373,0,0,0-2.776-7.279c-4.672-7.347-12.208-12.486-20.377-15.6q-1.224-.466-2.464-.873C411.022,67.444,402.19,65.412,393.273,66.087Z" transform="translate(-387.983 -65.957)" fill="#1aa4c8"/>
            </g>
            <g id="Group_31261" data-name="Group 31261" transform="translate(24.325 8.773)" opacity="0.7">
              <path id="Path_71044" data-name="Path 71044" d="M128.284,85.914a12.341,12.341,0,0,0-.5,2.584c-.378,4.254,1.057,8.637-.143,12.851-1.436,5.044-5.592,8.821-7.286,13.773a31.888,31.888,0,0,0,.657,22.647,21.515,21.515,0,0,0,6.528,8.838c4.506,3.4,10.41,4.151,15.963,3.72,8.264-.643,16.984-4.22,25.292-3.244a6.857,6.857,0,0,1,4.773,3.04c1.336,1.777,2.321,3.994,3.58,5.734q.486.672,1.015,1.309h43.445c.472-.612.916-1.245,1.326-1.9a19.976,19.976,0,0,0,3.2-11.607c-.215-4.41-1.98-8.79-1.163-13.122,1.026-5.438,5.123-10.393,8.092-14.823a34.184,34.184,0,0,0,5.653-16.681c0-.067.008-.135.012-.2A22.715,22.715,0,0,0,223.1,75.981L202.3,69.143a96.6,96.6,0,0,0-16.66-3.938,81.363,81.363,0,0,0-11.183-.819c-.81,0-1.619.011-2.428.035a71.1,71.1,0,0,0-31.308,8.195C136.527,74.82,129.692,81.386,128.284,85.914Z" transform="translate(-118.599 -64.386)" fill="#1aa4c8"/>
            </g>
            <g id="Group_31262" data-name="Group 31262" transform="translate(69.028)" opacity="0.35">
              <circle id="Ellipse_3885" data-name="Ellipse 3885" cx="3.381" cy="3.381" r="3.381" fill="#1aa4c8"/>
            </g>
            <g id="Group_31263" data-name="Group 31263" transform="translate(156.15 35.957)" opacity="0.35">
              <circle id="Ellipse_3886" data-name="Ellipse 3886" cx="7.635" cy="7.635" r="7.635" fill="#1aa4c8"/>
            </g>
            <g id="Group_31264" data-name="Group 31264" transform="translate(0 47.468)" opacity="0.35">
              <circle id="Ellipse_3887" data-name="Ellipse 3887" cx="7.635" cy="7.635" r="7.635" transform="translate(0 9.758) rotate(-39.719)" fill="#1aa4c8"/>
            </g>
            <g id="Group_31265" data-name="Group 31265" transform="translate(129.733 8.19)" opacity="0.35">
              <circle id="Ellipse_3888" data-name="Ellipse 3888" cx="2.319" cy="2.319" r="2.319" fill="#1aa4c8"/>
            </g>
          </g>
        </g>
        <g id="Title" transform="translate(2601.978 -1169.565)">
          <path id="App_Features" data-name="App Features" d="M-62.807-13.658h-1.081l-2.174-3.637-.022,0v3.633h-1.081V-19.05h1.081l2.174,3.633.022,0v-3.63h1.081Zm.744-2.041a2.151,2.151,0,0,1,.5-1.469,1.743,1.743,0,0,1,1.385-.572,1.761,1.761,0,0,1,1.393.57,2.139,2.139,0,0,1,.5,1.47v.078a2.142,2.142,0,0,1-.5,1.472,1.754,1.754,0,0,1-1.387.569,1.759,1.759,0,0,1-1.391-.569,2.142,2.142,0,0,1-.5-1.472Zm1.078.078a1.743,1.743,0,0,0,.193.88.665.665,0,0,0,.622.331.658.658,0,0,0,.613-.333,1.732,1.732,0,0,0,.194-.878V-15.7a1.714,1.714,0,0,0-.2-.87.664.664,0,0,0-.619-.337.656.656,0,0,0-.613.339,1.73,1.73,0,0,0-.194.869Zm2.189-2.826v.085h-.859l-.519-.493-.515.493h-.841v-.1l1.044-.889h.626Zm-.77,6.133h-1.211v-.893h1.211ZM-54-15.55a2.3,2.3,0,0,1-.411,1.43,1.36,1.36,0,0,1-1.148.541,1.283,1.283,0,0,1-.559-.117,1.149,1.149,0,0,1-.419-.343v1.922h-1.078v-5.548h.974l.063.474a1.284,1.284,0,0,1,.428-.406,1.157,1.157,0,0,1,.583-.143,1.334,1.334,0,0,1,1.156.581A2.6,2.6,0,0,1-54-15.628Zm-1.081-.078a1.939,1.939,0,0,0-.189-.919.616.616,0,0,0-.578-.352.817.817,0,0,0-.417.1.714.714,0,0,0-.272.285v1.756a.663.663,0,0,0,.272.259.917.917,0,0,0,.424.089.622.622,0,0,0,.576-.307,1.623,1.623,0,0,0,.183-.833Zm5.311,1.219a.6.6,0,0,0,.448-.169.612.612,0,0,0,.167-.45h.985l.007.022a1.254,1.254,0,0,1-.452,1.017,1.69,1.69,0,0,1-1.156.409,1.708,1.708,0,0,1-1.374-.569,2.161,2.161,0,0,1-.485-1.454v-.111a2.175,2.175,0,0,1,.483-1.454,1.693,1.693,0,0,1,1.369-.572,1.653,1.653,0,0,1,1.181.422,1.411,1.411,0,0,1,.433,1.111l-.007.022h-.985a.8.8,0,0,0-.165-.517.554.554,0,0,0-.457-.206.617.617,0,0,0-.594.335,1.838,1.838,0,0,0-.176.857v.111a1.831,1.831,0,0,0,.176.863A.626.626,0,0,0-49.769-14.409Zm4.6.752a2.275,2.275,0,0,1-.1-.289,2.009,2.009,0,0,1-.061-.311,1.482,1.482,0,0,1-.441.485,1.1,1.1,0,0,1-.652.193,1.353,1.353,0,0,1-.97-.324,1.161,1.161,0,0,1-.341-.883,1.057,1.057,0,0,1,.454-.913,2.266,2.266,0,0,1,1.324-.324h.607v-.319a.624.624,0,0,0-.152-.448.6.6,0,0,0-.452-.159.587.587,0,0,0-.406.128.446.446,0,0,0-.143.35h-1.041l-.007-.022a1.016,1.016,0,0,1,.443-.876,1.922,1.922,0,0,1,1.224-.369,1.794,1.794,0,0,1,1.169.363,1.264,1.264,0,0,1,.446,1.041v1.656a3.132,3.132,0,0,0,.043.53,2.658,2.658,0,0,0,.135.493Zm-.989-.722a.921.921,0,0,0,.5-.141.758.758,0,0,0,.3-.326v-.567h-.607a.72.72,0,0,0-.52.17.56.56,0,0,0-.176.419.418.418,0,0,0,.131.324A.52.52,0,0,0-46.158-14.38Zm-.2-4.907h.889l1.1.937-.007.022h-.97l-.567-.53-.559.53h-.974l-.007-.022Zm2.2-.681h1l-.793,1H-44.7Zm4.311,4.419a2.3,2.3,0,0,1-.411,1.43,1.36,1.36,0,0,1-1.148.541,1.283,1.283,0,0,1-.559-.117,1.149,1.149,0,0,1-.419-.343v1.922h-1.078v-5.548h.974l.063.474a1.284,1.284,0,0,1,.428-.406,1.157,1.157,0,0,1,.583-.143,1.334,1.334,0,0,1,1.156.581,2.6,2.6,0,0,1,.411,1.53Zm-1.081-.078a1.939,1.939,0,0,0-.189-.919.616.616,0,0,0-.578-.352.817.817,0,0,0-.417.1.714.714,0,0,0-.272.285v1.756a.663.663,0,0,0,.272.259.917.917,0,0,0,.424.089.622.622,0,0,0,.576-.307,1.623,1.623,0,0,0,.183-.833Zm4.933-3.019v.981h.678v.759h-.678v2.041a.466.466,0,0,0,.1.333.345.345,0,0,0,.257.1,1.032,1.032,0,0,0,.148-.009,1.247,1.247,0,0,0,.144-.031l.089.781a2.189,2.189,0,0,1-.317.083,1.888,1.888,0,0,1-.335.028,1.153,1.153,0,0,1-.861-.307,1.348,1.348,0,0,1-.3-.974v-2.044h-.585v-.759h.585v-.981Zm3.452,1.911-.4-.011a.72.72,0,0,0-.4.1.634.634,0,0,0-.237.281v2.707h-1.078v-4.007h1l.048.593a1.264,1.264,0,0,1,.365-.491.813.813,0,0,1,.517-.176.808.808,0,0,1,.15.013q.069.013.139.031Zm2.23,3.156a1.8,1.8,0,0,1-1.4-.55,2.016,2.016,0,0,1-.5-1.417v-.148a2.194,2.194,0,0,1,.489-1.474,1.662,1.662,0,0,1,1.344-.57,1.556,1.556,0,0,1,1.239.494,1.954,1.954,0,0,1,.431,1.332v.559H-31.1l-.011.022a1.083,1.083,0,0,0,.25.667.837.837,0,0,0,.665.256,2.225,2.225,0,0,0,.617-.074,2.516,2.516,0,0,0,.524-.226l.293.667a2.007,2.007,0,0,1-.652.33A2.891,2.891,0,0,1-30.31-13.58Zm-.07-3.326a.6.6,0,0,0-.5.224,1.124,1.124,0,0,0-.213.594l.007.019h1.319v-.081a.936.936,0,0,0-.144-.554A.534.534,0,0,0-30.38-16.906Zm1.293-1.544v.085h-.859l-.519-.493-.515.493h-.841v-.1l1.044-.889h.626Zm2,.785.048.574a1.466,1.466,0,0,1,.493-.478,1.279,1.279,0,0,1,.656-.17,1.192,1.192,0,0,1,.948.391,1.852,1.852,0,0,1,.341,1.235v2.456h-1.085v-2.452a.959.959,0,0,0-.15-.609.553.553,0,0,0-.45-.18.944.944,0,0,0-.424.091.828.828,0,0,0-.3.25v2.9H-28.1v-4.007Z" transform="translate(67.166 19.969)" fill="#333"/>
        </g>
        <g id="Group_31255" data-name="Group 31255" transform="translate(2547.669 -1238.869)">
          <g id="OBJECTS" transform="translate(0 0)">
            <g id="Group_31211" data-name="Group 31211" transform="translate(-25 16.861)">
              <g id="Group_31195" data-name="Group 31195" transform="translate(1.805 33.394)">
                <g id="Group_31194" data-name="Group 31194">
                  <rect id="Rectangle_18458" data-name="Rectangle 18458" width="37.158" height="27.024" rx="13.512" transform="translate(0.398 0.476) rotate(-0.12)" fill="#1aa4c8"/>
                  <path id="Path_70961" data-name="Path 70961" d="M166.251,338.405a4.466,4.466,0,0,1-4.461-4.451l-.039-18.917a4.466,4.466,0,0,1,4.451-4.47l29.051-.061h.009a4.466,4.466,0,0,1,4.461,4.451l.04,18.917a4.472,4.472,0,0,1-4.451,4.47h0l-29.051.061Zm29.06-.468h0Zm-.049-26.617h-.007l-29.051.061a3.651,3.651,0,0,0-3.639,3.655l.039,18.917a3.651,3.651,0,0,0,3.647,3.639h.008l29.051-.061a3.659,3.659,0,0,0,3.639-3.654l-.04-18.917A3.651,3.651,0,0,0,195.262,311.32Z" transform="translate(-161.751 -310.506)" fill="#233863"/>
                </g>
                <rect id="Rectangle_18459" data-name="Rectangle 18459" width="37.158" height="27.024" rx="13.512" transform="translate(0.398 0.476) rotate(-0.12)" fill="#233863" opacity="0.24"/>
              </g>
              <g id="Group_31205" data-name="Group 31205">
                <g id="Group_31197" data-name="Group 31197" transform="translate(19.425 9.017)">
                  <g id="Group_31196" data-name="Group 31196">
                    <rect id="Rectangle_18460" data-name="Rectangle 18460" width="18.415" height="24.687" rx="1.277" transform="translate(17.348 0.263) rotate(43.793)" fill="#fff"/>
                    <path id="Path_70962" data-name="Path 70962" d="M243.935,314.4a.748.748,0,0,1-.521-.21h0L230.621,301.93a.754.754,0,0,1-.022-1.066l16.6-17.32a.754.754,0,0,1,1.066-.022l12.792,12.264a.754.754,0,0,1,.022,1.066l-16.6,17.319a.748.748,0,0,1-.528.232Zm.042-.8h0Zm-12.749-12.222,12.705,12.181,16.521-17.232-12.705-12.181Z" transform="translate(-230.389 -283.313)" fill="#233863"/>
                  </g>
                  <path id="Path_70963" data-name="Path 70963" d="M314.826,317.971a.271.271,0,0,1-.188-.075l-4.816-4.617a.271.271,0,1,1,.376-.391l4.816,4.617a.271.271,0,0,1-.188.467Z" transform="translate(-288.213 -304.809)" fill="#ffce55"/>
                  <path id="Path_70964" data-name="Path 70964" d="M292.966,317.283a.271.271,0,0,1-.188-.075l-9.632-9.235a.271.271,0,0,1,.376-.392l9.632,9.235a.271.271,0,0,1-.188.467Z" transform="translate(-268.773 -300.943)" fill="#233863"/>
                  <path id="Path_70965" data-name="Path 70965" d="M281.392,329.355a.271.271,0,0,1-.188-.075l-9.632-9.235a.271.271,0,0,1,.376-.392l9.632,9.235a.271.271,0,0,1-.188.467Z" transform="translate(-260.339 -309.74)" fill="#233863"/>
                  <path id="Path_70966" data-name="Path 70966" d="M270.5,340.717a.27.27,0,0,1-.188-.075l-9.633-9.235a.271.271,0,1,1,.376-.391l9.633,9.235a.271.271,0,0,1-.188.467Z" transform="translate(-252.4 -318.02)" fill="#233863"/>
                  <path id="Path_70967" data-name="Path 70967" d="M258.924,352.79a.27.27,0,0,1-.188-.076l-9.633-9.235a.271.271,0,0,1,.376-.391l9.633,9.235a.271.271,0,0,1-.188.467Z" transform="translate(-243.966 -326.817)" fill="#233863"/>
                </g>
                <g id="Group_31200" data-name="Group 31200" transform="translate(0 17.683)">
                  <g id="Group_31198" data-name="Group 31198">
                    <rect id="Rectangle_18461" data-name="Rectangle 18461" width="18.415" height="24.687" rx="1.277" transform="translate(0.302 7.266) rotate(-22.221)" fill="#fff"/>
                    <path id="Path_70968" data-name="Path 70968" d="M164.927,283.013a.755.755,0,0,1-.7-.469l-9.074-22.212a.753.753,0,0,1,.413-.983l16.405-6.7a.755.755,0,0,1,.982.412l9.074,22.212a.755.755,0,0,1-.412.982h0l-16.406,6.7A.749.749,0,0,1,164.927,283.013Zm-9-22.932,9.028,22.1,16.294-6.656-9.029-22.1Zm25.532,15.8h0Zm-.154-.377h0Z" transform="translate(-155.099 -252.593)" fill="#233863"/>
                  </g>
                  <path id="Path_70969" data-name="Path 70969" d="M208.574,280.7a.271.271,0,0,1-.1-.522l2.821-1.153a.271.271,0,0,1,.205.5l-2.821,1.153A.273.273,0,0,1,208.574,280.7Z" transform="translate(-193.869 -271.84)" fill="#233863"/>
                  <path id="Path_70970" data-name="Path 70970" d="M179.762,300.077a.271.271,0,0,1-.1-.522l12.353-5.046a.271.271,0,1,1,.205.5l-12.353,5.047A.272.272,0,0,1,179.762,300.077Z" transform="translate(-172.874 -283.122)" fill="#233863"/>
                  <path id="Path_70971" data-name="Path 70971" d="M211.5,307.57a.271.271,0,0,1-.1-.522l4.91-2.006a.271.271,0,1,1,.205.5l-4.91,2.006A.268.268,0,0,1,211.5,307.57Z" transform="translate(-196.003 -290.799)" fill="#ffce55"/>
                  <path id="Path_70972" data-name="Path 70972" d="M184.065,320.869a.271.271,0,0,1-.1-.522l3.006-1.228a.271.271,0,1,1,.205.5l-3.006,1.228A.268.268,0,0,1,184.065,320.869Z" transform="translate(-176.009 -301.056)" fill="#ffce55"/>
                  <path id="Path_70973" data-name="Path 70973" d="M187.639,328.1a.271.271,0,0,1-.1-.522l7.609-3.108a.271.271,0,1,1,.205.5l-7.609,3.108A.267.267,0,0,1,187.639,328.1Z" transform="translate(-178.614 -304.955)" fill="#233863"/>
                  <g id="Group_31199" data-name="Group 31199" transform="translate(2.679 2.568)">
                    <rect id="Rectangle_18462" data-name="Rectangle 18462" width="8.237" height="8.757" rx="2.004" transform="matrix(0.918, -0.398, 0.398, 0.918, 0.1, 3.374)" fill="#ffce55"/>
                    <path id="Path_70974" data-name="Path 70974" d="M168.838,273.569a.817.817,0,0,1-.748-.491l-3.049-7.037a.815.815,0,0,1,.424-1.072l6.56-2.842a.816.816,0,0,1,1.072.424l3.049,7.037a.815.815,0,0,1-.424,1.072h0l-6.56,2.842A.813.813,0,0,1,168.838,273.569Zm3.51-10.967a.272.272,0,0,0-.108.022l-6.56,2.842a.273.273,0,0,0-.142.358l3.049,7.037a.273.273,0,0,0,.358.142l6.56-2.842a.273.273,0,0,0,.142-.358l-3.049-7.037A.273.273,0,0,0,172.348,262.6Zm3.265,7.808h0Z" transform="translate(-164.973 -262.059)" fill="#233863"/>
                  </g>
                  <path id="Path_70975" data-name="Path 70975" d="M174.374,270.393a.643.643,0,0,1-.589-.387l-.358-.825a.136.136,0,0,1,.249-.108l.358.825a.37.37,0,0,0,.487.193l.06-.026a.287.287,0,0,0,.149-.376l-.9-2.089a.3.3,0,0,0-.389-.154l-.1.045a.314.314,0,0,0-.163.413l.022.051a.136.136,0,0,1-.249.109l-.023-.052a.586.586,0,0,1,.3-.77l.1-.045a.569.569,0,0,1,.745.295l.9,2.089a.559.559,0,0,1-.29.733l-.06.026A.638.638,0,0,1,174.374,270.393Z" transform="translate(-168.051 -263.201)" fill="#233863"/>
                  <path id="Path_70976" data-name="Path 70976" d="M189.938,267.275a.576.576,0,1,1-.815-.008A.576.576,0,0,1,189.938,267.275Z" transform="translate(-179.767 -263.166)" fill="#fff"/>
                </g>
                <g id="Group_31202" data-name="Group 31202" transform="translate(32.293 -18)">
                  <g id="Group_31201" data-name="Group 31201">
                    <rect id="Rectangle_18463" data-name="Rectangle 18463" width="18.415" height="24.687" rx="1.277" transform="translate(0.299 7.496) rotate(-23.003)" fill="#fff"/>
                    <path id="Path_70977" data-name="Path 70977" d="M221.6,217.928a.755.755,0,0,1-.693-.459l-9.376-22.086a.755.755,0,0,1,.4-.988l16.313-6.926a.753.753,0,0,1,.988.4l9.376,22.086a.753.753,0,0,1-.4.988l-16.312,6.925A.753.753,0,0,1,221.6,217.928Zm-9.3-22.807,9.329,21.975,16.2-6.878L228.5,188.242Z" transform="translate(-211.471 -187.409)" fill="#233863"/>
                  </g>
                  <path id="Path_70978" data-name="Path 70978" d="M265,215.538a.271.271,0,0,1-.106-.521l2.805-1.191a.271.271,0,0,1,.212.5l-2.805,1.191A.271.271,0,0,1,265,215.538Z" transform="translate(-250.277 -206.644)" fill="#233863"/>
                  <path id="Path_70979" data-name="Path 70979" d="M236.593,234.956a.271.271,0,0,1-.106-.521l12.283-5.215a.271.271,0,1,1,.212.5L236.7,234.934A.271.271,0,0,1,236.593,234.956Z" transform="translate(-229.58 -217.862)" fill="#233863"/>
                  <path id="Path_70980" data-name="Path 70980" d="M268.321,242.288a.271.271,0,0,1-.106-.521l4.882-2.073a.271.271,0,1,1,.212.5l-4.883,2.073A.269.269,0,0,1,268.321,242.288Z" transform="translate(-252.7 -225.495)" fill="#ffce55"/>
                  <path id="Path_70981" data-name="Path 70981" d="M241.04,256.03a.271.271,0,0,1-.106-.521l2.989-1.269a.271.271,0,0,1,.212.5l-2.989,1.269A.27.27,0,0,1,241.04,256.03Z" transform="translate(-232.82 -236.094)" fill="#ffce55"/>
                  <path id="Path_70982" data-name="Path 70982" d="M244.781,263.043a.271.271,0,0,1-.106-.521l7.566-3.212a.271.271,0,0,1,.212.5l-7.566,3.212A.269.269,0,0,1,244.781,263.043Z" transform="translate(-235.546 -239.789)" fill="#233863"/>
                </g>
                <g id="Group_31204" data-name="Group 31204" transform="translate(15.309 19.237)">
                  <g id="Group_31203" data-name="Group 31203">
                    <rect id="Rectangle_18464" data-name="Rectangle 18464" width="18.415" height="24.687" rx="1.277" transform="matrix(0.989, 0.15, -0.15, 0.989, 4.062, 0.359)" fill="#1aa4c8"/>
                    <path id="Path_70983" data-name="Path 70983" d="M229.806,286.207a.778.778,0,0,1-.114-.008h0l-17.521-2.659a.753.753,0,0,1-.632-.858l3.6-23.722a.754.754,0,0,1,.858-.632l17.522,2.658a.754.754,0,0,1,.632.858l-3.6,23.722a.754.754,0,0,1-.744.64Zm-17.454-3.463,17.4,2.64,3.581-23.6-17.4-2.64Z" transform="translate(-211.53 -258.319)" fill="#233863"/>
                  </g>
                  <path id="Path_70984" data-name="Path 70984" d="M238.737,272.594a.261.261,0,0,1-.041,0l-3.364-.51a.271.271,0,1,1,.082-.536l3.363.51a.271.271,0,0,1-.04.539Z" transform="translate(-228.707 -267.955)" fill="#fff"/>
                  <path id="Path_70985" data-name="Path 70985" d="M269.583,290.708l-.041,0-3.862-.586a.271.271,0,1,1,.082-.536l3.862.586a.271.271,0,0,1-.04.539Z" transform="translate(-250.822 -281.099)" fill="#233863"/>
                  <path id="Path_70986" data-name="Path 70986" d="M237.922,285.9a.264.264,0,0,1-.041,0l-6.6-1a.271.271,0,0,1,.082-.536l6.6,1a.271.271,0,0,1-.041.539Z" transform="translate(-225.757 -277.296)" fill="#fff"/>
                  <path id="Path_70987" data-name="Path 70987" d="M236.333,302.579a.261.261,0,0,1-.041,0l-7.516-1.14a.271.271,0,0,1,.082-.536l7.516,1.14a.271.271,0,0,1-.04.54Z" transform="translate(-223.929 -289.346)" fill="#233863"/>
                  <path id="Path_70988" data-name="Path 70988" d="M239.649,319a.266.266,0,0,1-.041,0l-13.193-2a.271.271,0,1,1,.082-.536l13.193,2a.271.271,0,0,1-.041.539Z" transform="translate(-222.209 -300.687)" fill="#fff"/>
                  <path id="Path_70989" data-name="Path 70989" d="M231.366,334.662a.269.269,0,0,1-.041,0l-7.419-1.126a.271.271,0,1,1,.082-.536l7.419,1.125a.271.271,0,0,1-.041.54Z" transform="translate(-220.381 -312.737)" fill="#fff"/>
                </g>
              </g>
              <g id="Group_31210" data-name="Group 31210" transform="translate(1.802 31.702)">
                <g id="Group_31206" data-name="Group 31206" transform="translate(0.136 5.203)">
                  <path id="Path_70990" data-name="Path 70990" d="M197.47,351.474l-31.2.065a2.989,2.989,0,0,1-2.987-2.974l-.044-21.063a2.99,2.99,0,0,1,2.974-2.987l31.2-.065a2.99,2.99,0,0,1,2.987,2.974l.044,21.063A2.99,2.99,0,0,1,197.47,351.474Z" transform="translate(-162.971 -324.179)" fill="#fff"/>
                  <path id="Path_70991" data-name="Path 70991" d="M165.538,351.082a3.261,3.261,0,0,1-3.252-3.245l-.044-21.063a3.261,3.261,0,0,1,3.245-3.259l31.2-.065h.007a3.256,3.256,0,0,1,3.252,3.245l.044,21.063a3.255,3.255,0,0,1-3.245,3.258v0l-31.2.066Zm31.153-27.09h-.006l-31.2.065a2.718,2.718,0,0,0-2.7,2.715l.044,21.063a2.718,2.718,0,0,0,2.709,2.7h.006l31.2-.066h0a2.712,2.712,0,0,0,2.7-2.715L199.4,326.7A2.713,2.713,0,0,0,196.691,323.993Z" transform="translate(-162.242 -323.45)" fill="#233863"/>
                </g>
                <g id="Group_31207" data-name="Group 31207">
                  <path id="Path_70992" data-name="Path 70992" d="M197.724,305.769l-7.869.017a2.66,2.66,0,0,0-2.647,2.658l.008,3.766-19.93.042a4.066,4.066,0,0,0-4.045,4.062l.04,18.917a4.066,4.066,0,0,0,4.062,4.045l29.051-.061a4.066,4.066,0,0,0,4.045-4.062l-.039-18.529v-.388l-.016-7.819A2.661,2.661,0,0,0,197.724,305.769Z" transform="translate(-162.833 -305.362)" fill="#1aa4c8"/>
                  <path id="Path_70993" data-name="Path 70993" d="M166.241,338.59a4.466,4.466,0,0,1-4.461-4.451l-.04-18.917a4.466,4.466,0,0,1,4.451-4.47l19.524-.041-.007-3.359a3.068,3.068,0,0,1,3.053-3.066l7.869-.016h.007a3.063,3.063,0,0,1,3.06,3.053l.056,26.736a4.466,4.466,0,0,1-4.451,4.47l-29.051.061Zm30.391-33.506-7.868.016a2.254,2.254,0,0,0-2.241,2.251l.008,3.766a.407.407,0,0,1-.406.408l-19.93.042a3.651,3.651,0,0,0-3.639,3.654l.04,18.917a3.651,3.651,0,0,0,3.647,3.639h.007l29.051-.061a3.651,3.651,0,0,0,3.639-3.654l-.056-26.736a2.248,2.248,0,0,0-2.246-2.241Zm0-.407h0Z" transform="translate(-161.74 -304.27)" fill="#233863"/>
                </g>
                <path id="Path_70994" data-name="Path 70994" d="M206.465,316.891l-7.041.015a2.381,2.381,0,0,0-2.369,2.379l.007,3.37-17.833.037a3.638,3.638,0,0,0-3.619,3.635l.036,16.929a3.638,3.638,0,0,0,3.635,3.62l25.993-.055a3.638,3.638,0,0,0,3.619-3.635l-.035-16.583v-.347l-.015-7A2.381,2.381,0,0,0,206.465,316.891Z" transform="translate(-171.848 -313.467)" fill="#fff" opacity="0.12"/>
                <path id="Path_70995" data-name="Path 70995" d="M283.738,411.119a1.325,1.325,0,1,1-1.325-1.325A1.325,1.325,0,0,1,283.738,411.119Z" transform="translate(-248.712 -381.167)" fill="#fff"/>
                <path id="Path_70996" data-name="Path 70996" d="M282.539,317.315a.271.271,0,0,1-.271-.271v-3.606a1.152,1.152,0,0,0-1.2-1.1h-2.627a.271.271,0,1,1,0-.543h2.627a1.694,1.694,0,0,1,1.739,1.64v3.606A.271.271,0,0,1,282.539,317.315Z" transform="translate(-246.586 -309.756)" fill="#fff"/>
              </g>
            </g>
            <g id="Group_31222" data-name="Group 31222" transform="translate(137.261 48.564)">
              <g id="Group_31214" data-name="Group 31214" transform="translate(0.003 1.692)">
                <g id="Group_31212" data-name="Group 31212">
                  <rect id="Rectangle_18465" data-name="Rectangle 18465" width="37.158" height="27.024" rx="13.512" transform="translate(0.398 0.476) rotate(-0.12)" fill="#1aa4c8"/>
                  <path id="Path_71000" data-name="Path 71000" d="M443.217,338.405a4.473,4.473,0,0,1-4.46-4.451l-.04-18.917a4.466,4.466,0,0,1,4.451-4.47l29.051-.061h.009a4.466,4.466,0,0,1,4.461,4.451l.04,18.917a4.466,4.466,0,0,1-4.451,4.47h0l-29.051.061Zm29.06-.468h0Zm-.049-26.617h-.007l-29.051.061a3.652,3.652,0,0,0-3.639,3.655l.04,18.917a3.659,3.659,0,0,0,3.647,3.639h.008l29.051-.061a3.659,3.659,0,0,0,3.639-3.654l-.04-18.917A3.651,3.651,0,0,0,472.228,311.32Z" transform="translate(-438.717 -310.506)" fill="#233863"/>
                </g>
                <g id="Group_31213" data-name="Group 31213">
                  <rect id="Rectangle_18466" data-name="Rectangle 18466" width="37.158" height="27.024" rx="13.512" transform="translate(0.398 0.476) rotate(-0.12)" fill="#ffce55"/>
                  <path id="Path_71001" data-name="Path 71001" d="M443.217,338.405a4.473,4.473,0,0,1-4.46-4.451l-.04-18.917a4.466,4.466,0,0,1,4.451-4.47l29.051-.061h.009a4.466,4.466,0,0,1,4.461,4.451l.04,18.917a4.466,4.466,0,0,1-4.451,4.47h0l-29.051.061Zm29.06-.468h0Zm-.049-26.617h-.007l-29.051.061a3.652,3.652,0,0,0-3.639,3.655l.04,18.917a3.659,3.659,0,0,0,3.647,3.639h.008l29.051-.061a3.659,3.659,0,0,0,3.639-3.654l-.04-18.917A3.651,3.651,0,0,0,472.228,311.32Z" transform="translate(-438.717 -310.506)" fill="#233863"/>
                </g>
                <rect id="Rectangle_18467" data-name="Rectangle 18467" width="37.158" height="27.024" rx="13.512" transform="translate(0.398 0.476) rotate(-0.12)" fill="#233863" opacity="0.24"/>
              </g>
              <g id="Group_31217" data-name="Group 31217" transform="translate(0.136 3.514)">
                <g id="Group_31215" data-name="Group 31215">
                  <rect id="Rectangle_18468" data-name="Rectangle 18468" width="37.158" height="27.024" rx="10.987" transform="translate(0.265 0.343) rotate(-0.12)" fill="#fff"/>
                  <path id="Path_71002" data-name="Path 71002" d="M442.5,344.856a3.255,3.255,0,0,1-3.252-3.245l-.044-21.063a3.255,3.255,0,0,1,3.245-3.259l31.2-.065h.007a3.255,3.255,0,0,1,3.252,3.245l.044,21.063a3.256,3.256,0,0,1-3.245,3.259l-31.2.065Zm31.2-.608v0a2.713,2.713,0,0,0,2.7-2.715l-.044-21.063a2.713,2.713,0,0,0-2.709-2.7h-.006l-31.2.065a2.712,2.712,0,0,0-2.7,2.715l.044,21.063a2.713,2.713,0,0,0,2.709,2.7h.006Z" transform="translate(-439.209 -317.224)" fill="#233863"/>
                </g>
                <g id="Group_31216" data-name="Group 31216" transform="translate(0 1.689)">
                  <path id="Path_71003" data-name="Path 71003" d="M474.437,351.474l-31.2.065a2.989,2.989,0,0,1-2.987-2.974l-.044-21.063a2.99,2.99,0,0,1,2.974-2.987l31.2-.065a2.989,2.989,0,0,1,2.987,2.974l.044,21.063A2.989,2.989,0,0,1,474.437,351.474Z" transform="translate(-439.938 -324.179)" fill="#fff"/>
                  <path id="Path_71004" data-name="Path 71004" d="M442.5,351.082a3.256,3.256,0,0,1-3.252-3.245l-.044-21.063a3.261,3.261,0,0,1,3.245-3.259l31.2-.065h.007a3.256,3.256,0,0,1,3.252,3.245l.044,21.063a3.256,3.256,0,0,1-3.245,3.258v0l-31.2.066Zm31.153-27.09h-.006l-31.2.065a2.718,2.718,0,0,0-2.7,2.715l.044,21.063a2.713,2.713,0,0,0,2.709,2.7h.006l31.2-.066h0a2.712,2.712,0,0,0,2.7-2.715l-.044-21.063A2.713,2.713,0,0,0,473.658,323.993Z" transform="translate(-439.209 -323.45)" fill="#233863"/>
                </g>
              </g>
              <g id="Group_31221" data-name="Group 31221">
                <g id="Group_31218" data-name="Group 31218">
                  <path id="Path_71005" data-name="Path 71005" d="M474.69,305.769l-7.869.017a2.661,2.661,0,0,0-2.647,2.658l.008,3.766-19.93.042a4.065,4.065,0,0,0-4.045,4.062l.04,18.917a4.066,4.066,0,0,0,4.062,4.045l29.051-.061a4.065,4.065,0,0,0,4.045-4.062l-.039-18.529v-.388l-.016-7.819A2.661,2.661,0,0,0,474.69,305.769Z" transform="translate(-439.8 -305.362)" fill="#ffce55"/>
                  <path id="Path_71006" data-name="Path 71006" d="M443.208,338.59a4.465,4.465,0,0,1-4.461-4.451l-.04-18.917a4.466,4.466,0,0,1,4.451-4.47l19.523-.041-.007-3.359a3.068,3.068,0,0,1,3.053-3.066l7.869-.016h.007a3.067,3.067,0,0,1,3.059,3.053l.056,26.736a4.472,4.472,0,0,1-4.451,4.47l-29.051.061ZM473.6,305.084l-7.869.016a2.253,2.253,0,0,0-2.241,2.251l.008,3.766a.407.407,0,0,1-.406.408l-19.93.042a3.651,3.651,0,0,0-3.639,3.654l.04,18.917a3.651,3.651,0,0,0,3.647,3.639h.007l29.051-.061a3.658,3.658,0,0,0,3.639-3.654l-.056-26.736a2.253,2.253,0,0,0-2.245-2.241Zm0-.407h0Z" transform="translate(-438.707 -304.27)" fill="#233863"/>
                </g>
                <path id="Path_71007" data-name="Path 71007" d="M483.15,316.891l-7.041.015a2.381,2.381,0,0,0-2.369,2.379l.007,3.37-17.833.037a3.638,3.638,0,0,0-3.619,3.635l.036,16.929a3.638,3.638,0,0,0,3.635,3.62l25.993-.055a3.638,3.638,0,0,0,3.619-3.635l-.035-16.583v-.347l-.015-7A2.381,2.381,0,0,0,483.15,316.891Z" transform="translate(-448.61 -313.467)" fill="#fff" opacity="0.12"/>
                <path id="Path_71008" data-name="Path 71008" d="M560.423,411.119a1.325,1.325,0,1,1-1.325-1.325A1.325,1.325,0,0,1,560.423,411.119Z" transform="translate(-525.473 -381.167)" fill="#fff"/>
                <path id="Path_71009" data-name="Path 71009" d="M559.223,317.315a.271.271,0,0,1-.271-.271v-3.606a1.151,1.151,0,0,0-1.2-1.1h-2.628a.271.271,0,1,1,0-.543h2.628a1.694,1.694,0,0,1,1.739,1.64v3.606A.271.271,0,0,1,559.223,317.315Z" transform="translate(-523.347 -309.756)" fill="#fff"/>
              </g>
            </g>
            <g id="Group_31249" data-name="Group 31249" transform="translate(60.792 0)">
              <g id="Group_31225" data-name="Group 31225" transform="translate(61.308 16.525)">
                <g id="Group_31223" data-name="Group 31223">
                  <rect id="Rectangle_18469" data-name="Rectangle 18469" width="17.214" height="23.076" rx="1.277" transform="matrix(0.811, 0.585, -0.585, 0.811, 13.762, 0.27)" fill="#fff"/>
                  <path id="Path_71013" data-name="Path 71013" d="M463.325,219.179a.749.749,0,0,1-.439-.142h0l-13.4-9.66a.755.755,0,0,1-.171-1.052L462.4,190.168a.754.754,0,0,1,1.051-.171l13.4,9.66a.755.755,0,0,1,.171,1.051l-13.088,18.158a.749.749,0,0,1-.491.3A.774.774,0,0,1,463.325,219.179Zm.037-.8Zm-13.353-9.624,13.3,9.589,13.017-18.06-13.3-9.589Z" transform="translate(-449.172 -189.855)" fill="#233863"/>
                </g>
                <g id="Group_31224" data-name="Group 31224">
                  <rect id="Rectangle_18470" data-name="Rectangle 18470" width="17.214" height="23.076" rx="1.277" transform="matrix(0.811, 0.585, -0.585, 0.811, 13.762, 0.27)" fill="#1aa4c8"/>
                  <path id="Path_71014" data-name="Path 71014" d="M463.325,219.179a.749.749,0,0,1-.439-.142h0l-13.4-9.66a.755.755,0,0,1-.171-1.052L462.4,190.168a.754.754,0,0,1,1.051-.171l13.4,9.66a.755.755,0,0,1,.171,1.051l-13.088,18.158a.749.749,0,0,1-.491.3A.774.774,0,0,1,463.325,219.179Zm.037-.8Zm-13.353-9.624,13.3,9.589,13.017-18.06-13.3-9.589Z" transform="translate(-449.172 -189.855)" fill="#233863"/>
                </g>
                <path id="Path_71015" data-name="Path 71015" d="M523.911,236.561a.27.27,0,0,1-.158-.051l-2.311-1.666a.271.271,0,0,1,.317-.44l2.311,1.666a.271.271,0,0,1-.159.491Z" transform="translate(-501.754 -222.281)" fill="#233863"/>
                <path id="Path_71016" data-name="Path 71016" d="M493.8,234.126a.272.272,0,0,1-.158-.051l-10.119-7.293a.271.271,0,1,1,.317-.44l10.119,7.293a.271.271,0,0,1-.159.492Z" transform="translate(-474.118 -216.406)" fill="#233863"/>
                <path id="Path_71017" data-name="Path 71017" d="M503.954,254.56a.271.271,0,0,1-.158-.051l-4.022-2.9a.271.271,0,0,1,.317-.44l4.022,2.9a.271.271,0,0,1-.159.492Z" transform="translate(-485.964 -234.499)" fill="#ffce55"/>
                <path id="Path_71018" data-name="Path 71018" d="M479.919,237.236a.27.27,0,0,1-.158-.051L477.3,235.41a.271.271,0,1,1,.317-.44l2.462,1.774a.271.271,0,0,1-.159.491Z" transform="translate(-469.587 -222.694)" fill="#ffce55"/>
                <path id="Path_71019" data-name="Path 71019" d="M475.722,248.87a.271.271,0,0,1-.158-.051l-6.233-4.492a.271.271,0,1,1,.317-.44l6.233,4.492a.271.271,0,0,1-.159.492Z" transform="translate(-463.78 -229.191)" fill="#233863"/>
              </g>
              <g id="Group_31228" data-name="Group 31228" transform="translate(54.416 -0.643)">
                <g id="Group_31226" data-name="Group 31226">
                  <rect id="Rectangle_18471" data-name="Rectangle 18471" width="18.415" height="24.687" rx="1.277" transform="translate(9.169 0.305) rotate(21.04)" fill="#fff"/>
                  <path id="Path_71020" data-name="Path 71020" d="M459.491,208.442a.751.751,0,0,1-.269-.05h0l-16.54-6.363a.754.754,0,0,1-.433-.974l8.614-22.394a.755.755,0,0,1,.974-.433l16.54,6.363a.755.755,0,0,1,.433.974L460.2,207.959A.756.756,0,0,1,459.491,208.442Zm-16.461-7.151,16.427,6.319,8.571-22.281L451.6,179.01Z" transform="translate(-442.198 -178.179)" fill="#233863"/>
                </g>
                <g id="Group_31227" data-name="Group 31227">
                  <rect id="Rectangle_18472" data-name="Rectangle 18472" width="18.415" height="24.687" rx="1.277" transform="translate(9.169 0.305) rotate(21.04)" fill="#fff"/>
                  <path id="Path_71021" data-name="Path 71021" d="M459.491,208.442a.751.751,0,0,1-.269-.05h0l-16.54-6.363a.754.754,0,0,1-.433-.974l8.614-22.394a.755.755,0,0,1,.974-.433l16.54,6.363a.755.755,0,0,1,.433.974L460.2,207.959A.756.756,0,0,1,459.491,208.442Zm-16.461-7.151,16.427,6.319,8.571-22.281L451.6,179.01Z" transform="translate(-442.198 -178.179)" fill="#233863"/>
                </g>
                <path id="Path_71022" data-name="Path 71022" d="M479.6,205.986a.276.276,0,0,1-.1-.018l-2.844-1.094a.271.271,0,1,1,.2-.506l2.844,1.094a.271.271,0,0,1-.1.524Z" transform="translate(-467.181 -197.25)" fill="#233863"/>
                <path id="Path_71023" data-name="Path 71023" d="M481.609,225.557a.268.268,0,0,1-.1-.018l-12.455-4.791a.271.271,0,1,1,.2-.506l12.455,4.791a.271.271,0,0,1-.1.525Z" transform="translate(-461.644 -208.817)" fill="#233863"/>
                <path id="Path_71024" data-name="Path 71024" d="M497.681,243.932a.273.273,0,0,1-.1-.018l-4.95-1.9a.271.271,0,1,1,.195-.506l4.95,1.9a.271.271,0,0,1-.1.524Z" transform="translate(-478.824 -224.311)" fill="#ffce55"/>
                <path id="Path_71025" data-name="Path 71025" d="M468.1,232.553a.276.276,0,0,1-.1-.018l-3.03-1.166a.271.271,0,1,1,.195-.506l3.03,1.165a.271.271,0,0,1-.1.525Z" transform="translate(-458.667 -216.557)" fill="#ffce55"/>
                <path id="Path_71026" data-name="Path 71026" d="M466.926,245.731a.276.276,0,0,1-.1-.018l-7.671-2.951a.271.271,0,1,1,.2-.506l7.671,2.951a.271.271,0,0,1-.1.524Z" transform="translate(-454.43 -224.86)" fill="#233863"/>
              </g>
              <g id="Group_31248" data-name="Group 31248" transform="translate(-9 -8)">
                <g id="Group_31231" data-name="Group 31231">
                  <g id="Group_31230" data-name="Group 31230">
                    <g id="Group_31229" data-name="Group 31229">
                      <rect id="Rectangle_18473" data-name="Rectangle 18473" width="21.557" height="29.131" rx="1.58" transform="translate(9.705 0.292) rotate(18.852)" fill="#ffce55"/>
                      <path id="Path_71027" data-name="Path 71027" d="M338.507,159.207a.832.832,0,0,1-.269-.045l-19.589-6.688a.835.835,0,0,1-.521-1.061l9.136-26.757a.836.836,0,0,1,1.061-.521l19.589,6.688a.836.836,0,0,1,.521,1.061L339.3,158.641A.838.838,0,0,1,338.507,159.207Zm-10.451-34.3a.025.025,0,0,0-.023.014L318.9,151.676a.024.024,0,0,0,.014.027l19.589,6.689h0a.025.025,0,0,0,.027-.014l9.136-26.757a.024.024,0,0,0-.014-.027l-19.589-6.688Z" transform="translate(-318.082 -124.089)" fill="#233863"/>
                    </g>
                  </g>
                </g>
                <g id="Group_31247" data-name="Group 31247" transform="translate(5.835 0)">
                  <g id="Group_31244" data-name="Group 31244">
                    <g id="Group_31232" data-name="Group 31232">
                      <path id="Rectangle_18474" data-name="Rectangle 18474" d="M1.58,0h18.4a1.58,1.58,0,0,1,1.58,1.58v25.97a1.581,1.581,0,0,1-1.581,1.581H1.581A1.581,1.581,0,0,1,0,27.551V1.58A1.58,1.58,0,0,1,1.58,0Z" transform="translate(2.7 0.374) rotate(4.579)" fill="#fff"/>
                      <path id="Path_71028" data-name="Path 71028" d="M350.308,162.252l-.068,0L329.606,160.6a.835.835,0,0,1-.766-.9l2.257-28.183a.837.837,0,0,1,.9-.766l20.634,1.653a.837.837,0,0,1,.766.9l-2.257,28.183a.835.835,0,0,1-.832.769Zm-18.377-30.694a.022.022,0,0,0-.022.02l-2.257,28.183a.024.024,0,0,0,.02.024l20.633,1.653h0c.013,0,.023-.01.024-.02l2.257-28.184a.022.022,0,0,0-.02-.024l-20.634-1.653Z" transform="translate(-328.838 -130.744)" fill="#233863"/>
                    </g>
                    <g id="Group_31243" data-name="Group 31243" transform="translate(2.869 5.849)">
                      <g id="Group_31233" data-name="Group 31233" transform="translate(12.372)">
                        <line id="Line_5145" data-name="Line 5145" x2="5.227" y2="0.419" transform="translate(0.271 0.271)" fill="#fff" stroke="rgba(0,0,0,0)" stroke-width="1"/>
                        <path id="Path_71029" data-name="Path 71029" d="M390.514,153.265h-.022l-5.227-.419a.271.271,0,0,1-.249-.292.268.268,0,0,1,.292-.249l5.227.419a.271.271,0,0,1-.021.541Z" transform="translate(-385.016 -152.304)" fill="#ffce55"/>
                      </g>
                      <g id="Group_31234" data-name="Group 31234" transform="translate(12.237 1.67)">
                        <line id="Line_5146" data-name="Line 5146" x2="5.227" y2="0.419" transform="translate(0.271 0.271)" fill="#fff" stroke="rgba(0,0,0,0)" stroke-width="1"/>
                        <path id="Path_71030" data-name="Path 71030" d="M390.02,159.42H390L384.771,159a.271.271,0,1,1,.044-.541l5.227.419a.271.271,0,0,1-.021.542Z" transform="translate(-384.522 -158.458)" fill="#ffce55"/>
                      </g>
                      <g id="Group_31235" data-name="Group 31235" transform="translate(0 19.624)">
                        <line id="Line_5147" data-name="Line 5147" x2="5.227" y2="0.419" transform="translate(0.271 0.271)" fill="#fff" stroke="rgba(0,0,0,0)" stroke-width="1"/>
                        <path id="Path_71031" data-name="Path 71031" d="M344.91,225.6h-.022l-5.227-.419a.271.271,0,1,1,.043-.541l5.227.419a.271.271,0,0,1-.021.542Z" transform="translate(-339.412 -224.64)" fill="#ffce55"/>
                      </g>
                      <g id="Group_31242" data-name="Group 31242" transform="translate(0.313 7.738)">
                        <g id="Group_31236" data-name="Group 31236" transform="translate(0.496 2.85)">
                          <line id="Line_5148" data-name="Line 5148" x2="4.647" y2="0.372" transform="translate(0.271 0.271)" fill="#fff" stroke="rgba(0,0,0,0)" stroke-width="1"/>
                          <path id="Path_71032" data-name="Path 71032" d="M347.312,192.246h-.022l-4.647-.372a.271.271,0,1,1,.043-.541l4.647.372a.271.271,0,0,1-.021.542Z" transform="translate(-342.394 -191.331)" fill="#233863"/>
                        </g>
                        <g id="Group_31237" data-name="Group 31237" transform="translate(0 9.044)">
                          <line id="Line_5149" data-name="Line 5149" x2="7.992" y2="0.64" transform="translate(0.271 0.272)" fill="#fff" stroke="rgba(0,0,0,0)" stroke-width="1"/>
                          <path id="Path_71033" data-name="Path 71033" d="M348.828,215.349h-.022l-7.992-.64a.271.271,0,1,1,.044-.541l7.992.64a.271.271,0,0,1-.021.541Z" transform="translate(-340.564 -214.166)" fill="#233863"/>
                        </g>
                        <g id="Group_31238" data-name="Group 31238" transform="translate(0.248 5.947)">
                          <line id="Line_5150" data-name="Line 5150" x2="6.051" y2="0.485" transform="translate(0.272 0.271)" fill="#fff" stroke="rgba(0,0,0,0)" stroke-width="1"/>
                          <path id="Path_71034" data-name="Path 71034" d="M347.8,203.776h-.022l-6.051-.484a.272.272,0,0,1-.249-.292.269.269,0,0,1,.292-.249l6.05.485a.271.271,0,0,1-.021.542Z" transform="translate(-341.478 -202.749)" fill="#233863"/>
                        </g>
                        <g id="Group_31239" data-name="Group 31239" transform="translate(0.7)">
                          <line id="Line_5151" data-name="Line 5151" x2="15.648" y2="1.253" transform="translate(0.271 0.272)" fill="#fff" stroke="rgba(0,0,0,0)" stroke-width="1"/>
                          <path id="Path_71035" data-name="Path 71035" d="M359.064,182.623h-.022l-15.648-1.253a.272.272,0,0,1-.249-.292.267.267,0,0,1,.292-.249l15.647,1.253a.271.271,0,0,1-.021.542Z" transform="translate(-343.145 -180.826)" fill="#233863"/>
                        </g>
                        <g id="Group_31240" data-name="Group 31240" transform="translate(8.229 6.562)">
                          <line id="Line_5152" data-name="Line 5152" x2="7.477" y2="0.599" transform="translate(0.272 0.271)" fill="#fff" stroke="rgba(0,0,0,0)" stroke-width="1"/>
                          <path id="Path_71036" data-name="Path 71036" d="M378.644,206.157h-.022l-7.477-.6a.272.272,0,0,1-.249-.292.268.268,0,0,1,.292-.248l7.477.6a.271.271,0,0,1-.021.541Z" transform="translate(-370.896 -205.015)" fill="#233863"/>
                        </g>
                        <g id="Group_31241" data-name="Group 31241" transform="translate(6.879 3.32)">
                          <line id="Line_5153" data-name="Line 5153" x2="9.589" y2="0.809" transform="translate(0.271 0.271)" fill="#fff" stroke="rgba(0,0,0,0)" stroke-width="1"/>
                          <path id="Path_71037" data-name="Path 71037" d="M375.78,194.416h-.023l-9.589-.809a.271.271,0,0,1,.046-.541l9.589.809a.271.271,0,0,1-.023.542Z" transform="translate(-365.92 -193.064)" fill="#233863"/>
                        </g>
                      </g>
                    </g>
                  </g>
                  <g id="Group_31246" data-name="Group 31246" transform="translate(9.346 2.498)">
                    <g id="Group_31245" data-name="Group 31245" transform="translate(0 0)">
                      <path id="Path_71038" data-name="Path 71038" d="M363.288,139.953" transform="translate(-363.288 -139.953)" fill="none" stroke="#233863" stroke-linecap="round" stroke-linejoin="round" stroke-width="3"/>
                    </g>
                  </g>
                </g>
              </g>
            </g>
          </g>
        </g>
        <g id="Back" transform="translate(2617.755 -1183.51)">
          <path id="Path_1651" data-name="Path 1651" d="M7.339.117A.387.387,0,0,0,6.79.662L9.575,3.446H.385a.387.387,0,0,0-.39.382.391.391,0,0,0,.39.39h9.19L6.79,7a.394.394,0,0,0,0,.549.385.385,0,0,0,.549,0l3.447-3.441a.388.388,0,0,0,0-.545Zm0,0" transform="translate(0.006 -0.002)" fill="#454f63"/>
        </g>
      </g>
    </g>
    <g id="Group_47275" data-name="Group 47275" transform="translate(0 -660)">
      <rect id="Rectangle_23012" data-name="Rectangle 23012" width="128" height="170" transform="translate(20 1124)" fill="none"/>
      <g id="Group_47274" data-name="Group 47274" transform="translate(36 1142.956)">
        <g id="Group_31195-2" data-name="Group 31195" transform="translate(3.464 69.588)">
          <g id="Group_31194-2" data-name="Group 31194">
            <rect id="Rectangle_18458-2" data-name="Rectangle 18458" width="71.336" height="51.881" rx="14.943" transform="translate(0.765 0.915) rotate(-0.12)" fill="#1aa4c8"/>
            <path id="Path_70961-2" data-name="Path 70961" d="M170.39,364.066a8.573,8.573,0,0,1-8.564-8.545l-.076-36.317a8.573,8.573,0,0,1,8.545-8.582l55.772-.117h.017a8.573,8.573,0,0,1,8.564,8.545l.076,36.317a8.586,8.586,0,0,1-8.545,8.581h0l-55.772.117Zm55.788-.9h0Zm-.093-51.1h-.014l-55.772.117a7.01,7.01,0,0,0-6.986,7.016l.075,36.317a7.01,7.01,0,0,0,7,6.986h.015l55.772-.117a7.024,7.024,0,0,0,6.986-7.016l-.076-36.317A7.009,7.009,0,0,0,226.085,312.068Z" transform="translate(-161.751 -310.506)" fill="#233863"/>
          </g>
          <rect id="Rectangle_18459-2" data-name="Rectangle 18459" width="71.336" height="51.881" rx="14.943" transform="translate(0.765 0.915) rotate(-0.12)" fill="#233863" opacity="0.24"/>
        </g>
        <g id="Group_31205-2" data-name="Group 31205" transform="translate(0 -5.956)">
          <g id="Group_31197-2" data-name="Group 31197" transform="translate(37.292 28.745)">
            <g id="Group_31196-2" data-name="Group 31196">
              <rect id="Rectangle_18460-2" data-name="Rectangle 18460" width="35.353" height="47.393" rx="1.277" transform="translate(33.304 0.506) rotate(43.793)" fill="#fff"/>
              <path id="Path_70962-2" data-name="Path 70962" d="M256.393,343a1.437,1.437,0,0,1-1-.4h0l-24.558-23.544a1.447,1.447,0,0,1-.043-2.046l31.877-33.25a1.448,1.448,0,0,1,2.046-.043l24.558,23.545a1.448,1.448,0,0,1,.043,2.046l-31.877,33.25a1.436,1.436,0,0,1-1.014.445Zm.081-1.531h0ZM232,318.006l24.391,23.384,31.717-33.082-24.391-23.385Z" transform="translate(-230.389 -283.313)" fill="#233863"/>
            </g>
            <path id="Path_70963-2" data-name="Path 70963" d="M319.506,322.717a.521.521,0,0,1-.36-.145l-9.246-8.865a.521.521,0,0,1,.721-.752l9.246,8.864a.521.521,0,0,1-.361.9Z" transform="translate(-268.414 -297.448)" fill="#ffce55"/>
            <path id="Path_70964-2" data-name="Path 70964" d="M302.075,326.276a.521.521,0,0,1-.36-.145L283.223,308.4a.521.521,0,0,1,.721-.752l18.492,17.729a.521.521,0,0,1-.361.9Z" transform="translate(-255.63 -294.906)" fill="#233863"/>
            <path id="Path_70965-2" data-name="Path 70965" d="M290.5,338.348a.521.521,0,0,1-.36-.145l-18.492-17.729a.521.521,0,0,1,.721-.752l18.492,17.729a.521.521,0,0,1-.361.9Z" transform="translate(-250.084 -300.691)" fill="#233863"/>
            <path id="Path_70966-2" data-name="Path 70966" d="M279.608,349.71a.519.519,0,0,1-.361-.145l-18.493-17.729a.521.521,0,0,1,.721-.751l18.493,17.729a.521.521,0,0,1-.36.9Z" transform="translate(-244.864 -306.136)" fill="#233863"/>
            <path id="Path_70967-2" data-name="Path 70967" d="M268.034,361.783a.519.519,0,0,1-.36-.145l-18.493-17.729a.521.521,0,0,1,.721-.752l18.493,17.729a.521.521,0,0,1-.361.9Z" transform="translate(-239.317 -311.921)" fill="#233863"/>
          </g>
          <g id="Group_31200-2" data-name="Group 31200" transform="translate(0 45.383)">
            <g id="Group_31198-2" data-name="Group 31198">
              <rect id="Rectangle_18461-2" data-name="Rectangle 18461" width="35.353" height="47.393" rx="1.277" transform="translate(0.58 13.948) rotate(-22.221)" fill="#fff"/>
              <path id="Path_70968-2" data-name="Path 70968" d="M173.967,310.994a1.45,1.45,0,0,1-1.339-.9l-17.42-42.642a1.445,1.445,0,0,1,.792-1.886L187.5,252.7a1.449,1.449,0,0,1,1.886.792l17.42,42.642a1.449,1.449,0,0,1-.792,1.886h0l-31.5,12.866A1.439,1.439,0,0,1,173.967,310.994ZM156.7,266.969,174.03,309.4l31.281-12.779L187.978,254.19ZM205.713,297.3h0Zm-.3-.723h0Z" transform="translate(-155.099 -252.593)" fill="#233863"/>
            </g>
            <path id="Path_70969-2" data-name="Path 70969" d="M208.824,282.26a.521.521,0,0,1-.2-1l5.416-2.213a.521.521,0,1,1,.394.965l-5.416,2.213A.523.523,0,0,1,208.824,282.26Z" transform="translate(-180.594 -265.249)" fill="#233863"/>
            <path id="Path_70970-2" data-name="Path 70970" d="M180.012,305.218a.521.521,0,0,1-.2-1l23.715-9.688a.521.521,0,1,1,.394.964l-23.715,9.689A.524.524,0,0,1,180.012,305.218Z" transform="translate(-166.787 -272.669)" fill="#233863"/>
            <path id="Path_70971-2" data-name="Path 70971" d="M211.751,309.914a.521.521,0,0,1-.2-1l9.427-3.85a.521.521,0,1,1,.394.964l-9.427,3.851A.515.515,0,0,1,211.751,309.914Z" transform="translate(-181.997 -277.717)" fill="#ffce55"/>
            <path id="Path_70972-2" data-name="Path 70972" d="M184.314,322.5a.521.521,0,0,1-.2-1l5.77-2.357a.521.521,0,1,1,.394.964l-5.77,2.358A.513.513,0,0,1,184.314,322.5Z" transform="translate(-168.849 -284.462)" fill="#ffce55"/>
            <path id="Path_70973-2" data-name="Path 70973" d="M187.888,331.458a.521.521,0,0,1-.2-1l14.607-5.967a.521.521,0,0,1,.394.965l-14.607,5.967A.512.512,0,0,1,187.888,331.458Z" transform="translate(-170.562 -287.026)" fill="#233863"/>
            <g id="Group_31199-2" data-name="Group 31199" transform="translate(5.142 4.93)">
              <rect id="Rectangle_18462-2" data-name="Rectangle 18462" width="15.812" height="16.811" rx="2.004" transform="matrix(0.918, -0.398, 0.398, 0.918, 0.193, 6.478)" fill="#ffce55"/>
              <path id="Path_70974-2" data-name="Path 70974" d="M172.392,284.155a1.568,1.568,0,0,1-1.436-.943L165.1,269.7a1.565,1.565,0,0,1,.813-2.058l12.594-5.456a1.566,1.566,0,0,1,2.058.814l5.853,13.51a1.565,1.565,0,0,1-.813,2.057h0l-12.594,5.456A1.561,1.561,0,0,1,172.392,284.155Zm6.739-21.054a.522.522,0,0,0-.207.043L166.33,268.6a.523.523,0,0,0-.272.688l5.854,13.51a.523.523,0,0,0,.687.272l12.594-5.456a.524.524,0,0,0,.272-.688l-5.853-13.51A.523.523,0,0,0,179.131,263.1Zm6.269,14.99h0Z" transform="translate(-164.973 -262.059)" fill="#233863"/>
            </g>
            <path id="Path_70975-2" data-name="Path 70975" d="M175.754,273.375a1.235,1.235,0,0,1-1.131-.743l-.686-1.584a.261.261,0,0,1,.478-.208l.686,1.584a.71.71,0,0,0,.934.37l.116-.049a.55.55,0,0,0,.285-.722l-1.737-4.01a.569.569,0,0,0-.746-.3l-.2.086a.6.6,0,0,0-.314.793l.043.1a.26.26,0,0,1-.477.209l-.043-.1a1.125,1.125,0,0,1,.584-1.479l.2-.086a1.092,1.092,0,0,1,1.431.566l1.737,4.01a1.073,1.073,0,0,1-.557,1.408l-.116.049A1.223,1.223,0,0,1,175.754,273.375Z" transform="translate(-163.616 -259.569)" fill="#233863"/>
            <path id="Path_70976-2" data-name="Path 70976" d="M190.847,267.434a1.106,1.106,0,1,1-1.564-.015A1.106,1.106,0,0,1,190.847,267.434Z" transform="translate(-171.321 -259.546)" fill="#fff"/>
          </g>
          <g id="Group_31202-2" data-name="Group 31202" transform="translate(6.321)">
            <g id="Group_31201-2" data-name="Group 31201">
              <rect id="Rectangle_18463-2" data-name="Rectangle 18463" width="35.353" height="47.393" rx="1.277" transform="translate(0.574 14.39) rotate(-23.003)" fill="#fff"/>
              <path id="Path_70977-2" data-name="Path 70977" d="M230.917,246a1.449,1.449,0,0,1-1.331-.882l-18-42.4a1.449,1.449,0,0,1,.766-1.9l31.317-13.3a1.446,1.446,0,0,1,1.9.767l18,42.4a1.445,1.445,0,0,1-.767,1.9l-31.316,13.3A1.446,1.446,0,0,1,230.917,246Zm-17.848-43.785,17.91,42.186,31.1-13.2-17.909-42.186Z" transform="translate(-211.471 -187.409)" fill="#233863"/>
            </g>
            <path id="Path_70978-2" data-name="Path 70978" d="M265.245,217.133a.521.521,0,0,1-.2-1l5.385-2.286a.521.521,0,0,1,.407.959l-5.385,2.286A.519.519,0,0,1,265.245,217.133Z" transform="translate(-236.99 -200.058)" fill="#233863"/>
            <path id="Path_70979-2" data-name="Path 70979" d="M236.842,240.251a.521.521,0,0,1-.2-1L260.22,229.24a.521.521,0,1,1,.407.959L237.046,240.21A.519.519,0,0,1,236.842,240.251Z" transform="translate(-223.379 -207.435)" fill="#233863"/>
            <path id="Path_70980-2" data-name="Path 70980" d="M268.57,244.694a.521.521,0,0,1-.2-1l9.373-3.979a.521.521,0,1,1,.407.959l-9.373,3.979A.516.516,0,0,1,268.57,244.694Z" transform="translate(-238.583 -212.454)" fill="#ffce55"/>
            <path id="Path_70981-2" data-name="Path 70981" d="M241.289,257.7a.521.521,0,0,1-.2-1l5.738-2.436a.521.521,0,0,1,.407.959l-5.738,2.435A.52.52,0,0,1,241.289,257.7Z" transform="translate(-225.51 -219.424)" fill="#ffce55"/>
            <path id="Path_70982-2" data-name="Path 70982" d="M245.03,266.5a.521.521,0,0,1-.2-1l14.525-6.166a.521.521,0,0,1,.407.959l-14.525,6.166A.517.517,0,0,1,245.03,266.5Z" transform="translate(-227.303 -221.853)" fill="#233863"/>
          </g>
          <g id="Group_31204-2" data-name="Group 31204" transform="translate(29.389 48.365)">
            <g id="Group_31203-2" data-name="Group 31203">
              <rect id="Rectangle_18464-2" data-name="Rectangle 18464" width="35.353" height="47.393" rx="1.277" transform="matrix(0.989, 0.15, -0.15, 0.989, 7.798, 0.689)" fill="#1aa4c8"/>
              <path id="Path_70983-2" data-name="Path 70983" d="M246.616,311.857a1.49,1.49,0,0,1-.22-.016h0l-33.637-5.1a1.446,1.446,0,0,1-1.213-1.648l6.909-45.54a1.447,1.447,0,0,1,1.647-1.214l33.638,5.1a1.448,1.448,0,0,1,1.213,1.647l-6.909,45.542a1.448,1.448,0,0,1-1.427,1.23Zm-33.508-6.647,33.408,5.069,6.875-45.312L219.983,259.9Z" transform="translate(-211.53 -258.319)" fill="#233863"/>
            </g>
            <path id="Path_70984-2" data-name="Path 70984" d="M242.08,273.563a.5.5,0,0,1-.079-.006l-6.457-.98a.52.52,0,1,1,.157-1.029l6.457.98a.521.521,0,0,1-.078,1.035Z" transform="translate(-222.825 -264.655)" fill="#fff"/>
            <path id="Path_70985-2" data-name="Path 70985" d="M273.386,291.746a.582.582,0,0,1-.079-.006l-7.415-1.125a.52.52,0,1,1,.157-1.029l7.415,1.125a.521.521,0,0,1-.078,1.035Z" transform="translate(-237.368 -273.299)" fill="#233863"/>
            <path id="Path_70986-2" data-name="Path 70986" d="M244.239,287.324a.508.508,0,0,1-.079-.006L231.5,285.4a.521.521,0,1,1,.157-1.03l12.664,1.922a.521.521,0,0,1-.078,1.035Z" transform="translate(-220.885 -270.798)" fill="#fff"/>
            <path id="Path_70987-2" data-name="Path 70987" d="M243.5,304.127a.505.505,0,0,1-.079-.006l-14.429-2.189a.521.521,0,0,1,.157-1.03l14.429,2.189a.521.521,0,0,1-.078,1.036Z" transform="translate(-219.684 -278.722)" fill="#233863"/>
            <path id="Path_70988-2" data-name="Path 70988" d="M252.034,321.343a.516.516,0,0,1-.079-.006l-25.328-3.843a.52.52,0,1,1,.157-1.029l25.328,3.842a.521.521,0,0,1-.078,1.035Z" transform="translate(-218.552 -286.18)" fill="#fff"/>
            <path id="Path_70989-2" data-name="Path 70989" d="M238.439,336.2a.517.517,0,0,1-.079-.006l-14.243-2.161a.521.521,0,1,1,.157-1.029l14.243,2.16a.521.521,0,0,1-.078,1.036Z" transform="translate(-217.35 -294.103)" fill="#fff"/>
          </g>
        </g>
        <g id="Group_31210-2" data-name="Group 31210" transform="translate(3.459 66.34)">
          <g id="Group_31206-2" data-name="Group 31206" transform="translate(0.261 9.989)">
            <path id="Path_70990-2" data-name="Path 70990" d="M228.953,376.331l-59.892.126a5.739,5.739,0,0,1-5.734-5.71l-.085-40.436a5.739,5.739,0,0,1,5.71-5.735l59.892-.126a5.739,5.739,0,0,1,5.735,5.71l.085,40.437A5.739,5.739,0,0,1,228.953,376.331Z" transform="translate(-162.721 -323.929)" fill="#fff"/>
            <path id="Path_70991-2" data-name="Path 70991" d="M168.57,376.5a6.26,6.26,0,0,1-6.243-6.23l-.085-40.437a6.26,6.26,0,0,1,6.23-6.256l59.892-.125h.013a6.25,6.25,0,0,1,6.243,6.23l.085,40.437a6.25,6.25,0,0,1-6.23,6.255v0l-59.892.127Zm59.807-52.007h-.011l-59.892.125a5.219,5.219,0,0,0-5.19,5.212l.085,40.437a5.218,5.218,0,0,0,5.2,5.191h.011l59.892-.126h0a5.207,5.207,0,0,0,5.191-5.212l-.085-40.437A5.208,5.208,0,0,0,228.376,324.492Z" transform="translate(-162.242 -323.45)" fill="#233863"/>
          </g>
          <g id="Group_31207-2" data-name="Group 31207">
            <path id="Path_70992-2" data-name="Path 70992" d="M229.441,305.769l-15.106.032a5.107,5.107,0,0,0-5.082,5.1l.015,7.229-38.262.08a7.8,7.8,0,0,0-7.766,7.8l.077,36.317a7.8,7.8,0,0,0,7.8,7.766l55.772-.117a7.805,7.805,0,0,0,7.766-7.8l-.074-35.572,0-.744-.031-15.011A5.108,5.108,0,0,0,229.441,305.769Z" transform="translate(-162.459 -304.988)" fill="#1aa4c8"/>
            <path id="Path_70993-2" data-name="Path 70993" d="M170.38,370.157a8.573,8.573,0,0,1-8.564-8.545L161.74,325.3a8.573,8.573,0,0,1,8.545-8.581l37.481-.079-.014-6.448a5.889,5.889,0,0,1,5.862-5.886l15.106-.031h.013a5.88,5.88,0,0,1,5.874,5.861l.108,51.328a8.573,8.573,0,0,1-8.545,8.581l-55.772.117Zm58.343-64.325-15.106.031a4.326,4.326,0,0,0-4.3,4.321l.015,7.229a.782.782,0,0,1-.78.783l-38.262.08a7.009,7.009,0,0,0-6.986,7.016l.077,36.317a7.009,7.009,0,0,0,7,6.986h.014l55.772-.117a7.009,7.009,0,0,0,6.986-7.016l-.108-51.328a4.316,4.316,0,0,0-4.311-4.3Zm0-.781h0Z" transform="translate(-161.74 -304.27)" fill="#233863"/>
          </g>
          <path id="Path_70994-2" data-name="Path 70994" d="M234.844,316.891l-13.516.029a4.57,4.57,0,0,0-4.547,4.567l.014,6.469-34.235.072a6.984,6.984,0,0,0-6.949,6.979l.068,32.5a6.984,6.984,0,0,0,6.978,6.95l49.9-.1a6.985,6.985,0,0,0,6.949-6.979l-.067-31.835v-.666l-.028-13.434A4.571,4.571,0,0,0,234.844,316.891Z" transform="translate(-168.387 -310.318)" fill="#fff" opacity="0.12"/>
          <path id="Path_70995-2" data-name="Path 70995" d="M286.175,412.337a2.543,2.543,0,1,1-2.543-2.543A2.543,2.543,0,0,1,286.175,412.337Z" transform="translate(-218.932 -354.837)" fill="#fff"/>
          <path id="Path_70996-2" data-name="Path 70996" d="M286.555,322.389a.52.52,0,0,1-.521-.521v-6.922a2.211,2.211,0,0,0-2.3-2.107h-5.043a.521.521,0,1,1,0-1.042h5.043a3.252,3.252,0,0,1,3.339,3.148v6.922A.521.521,0,0,1,286.555,322.389Z" transform="translate(-217.534 -307.877)" fill="#fff"/>
        </g>
      </g>
    </g>
    <rect id="Rectangle_23004" data-name="Rectangle 23004" width="128" height="128" transform="translate(20 20)" fill="none"/>
    <g id="Rectangle_23005" data-name="Rectangle 23005" transform="translate(168 20)" fill="none" stroke="#000" stroke-width="0.1">
      <rect width="128" height="128" stroke="none"/>
      <rect x="0.05" y="0.05" width="127.9" height="127.9" fill="none"/>
    </g>
    <g id="Rectangle_23006" data-name="Rectangle 23006" transform="translate(316 20)" fill="none" stroke="#000" stroke-width="0.1">
      <rect width="128" height="128" stroke="none"/>
      <rect x="0.05" y="0.05" width="127.9" height="127.9" fill="none"/>
    </g>
    <rect id="Rectangle_23010-7" data-name="Rectangle 23010" width="48" height="48" transform="translate(532 20)" fill="none"/>
    <rect id="Rectangle_23010-8" data-name="Rectangle 23010" width="48" height="48" transform="translate(464 88)" fill="none"/>
    <rect id="Rectangle_23010-9" data-name="Rectangle 23010" width="48" height="48" transform="translate(532 88)" fill="none"/>
    <g id="Rectangle_23010-10" data-name="Rectangle 23010" transform="translate(600 88)" fill="none" stroke="#000" stroke-width="0.1">
      <rect width="48" height="48" stroke="none"/>
      <rect x="0.05" y="0.05" width="47.9" height="47.9" fill="none"/>
    </g>
    <g id="Group_47271" data-name="Group 47271" transform="translate(12106 -3402)">
      <g id="Group_42979" data-name="Group 42979" transform="translate(-12090 3412)">
        <g id="Group_1" data-name="Group 1" transform="translate(12.594 27)">
          <path id="Path_1" data-name="Path 1" d="M19.187,58.123H115.8a5.187,5.187,0,1,0,0-10.374H89.862a5.2,5.2,0,0,1-5.187-5.187,5.095,5.095,0,0,1,5.187-5.187h6.484a5.187,5.187,0,1,0,0-10.374H29.561a5.187,5.187,0,1,0,0,10.374h9.726a5.2,5.2,0,0,1,5.187,5.187,5.095,5.095,0,0,1-5.187,5.187h-20.1a5.187,5.187,0,0,0,0,10.374Z" transform="translate(-14 -27)" fill="#1aa4c8" opacity="0.15" style="isolation: isolate"/>
          <path id="Path_2" data-name="Path 2" d="M142.972,91H76.187a5.187,5.187,0,0,0,0,10.374h66.785a5.187,5.187,0,1,0,0-10.374Z" transform="translate(-34.042 -49.503)" fill="#1aa4c8" opacity="0.15" style="isolation: isolate"/>
          <path id="Path_3" data-name="Path 3" d="M108.072,129.484v-1.3A5.2,5.2,0,0,0,102.885,123h-81.7A5.2,5.2,0,0,0,16,128.187v1.3a5.2,5.2,0,0,0,5.187,5.187h81.7A5.2,5.2,0,0,0,108.072,129.484Z" transform="translate(-14.703 -60.754)" fill="#1aa4c8" opacity="0.15" style="isolation: isolate"/>
          <path id="Path_4" data-name="Path 4" d="M118.83,157H35.187a5.187,5.187,0,1,0,0,10.374H118.83a5.187,5.187,0,1,0,0-10.374Z" transform="translate(-19.626 -72.709)" fill="#1aa4c8" opacity="0.15" style="isolation: isolate"/>
        </g>
        <g id="Group_3" data-name="Group 3" transform="translate(10 29.594)">
          <g id="Group_2" data-name="Group 2" transform="translate(19.452 23.342)">
            <path id="Path_5" data-name="Path 5" d="M83.794,131.113H44.242A3.21,3.21,0,0,1,41,127.935V79.242A3.21,3.21,0,0,1,44.178,76H83.794a3.21,3.21,0,0,1,3.242,3.178v48.693a3.21,3.21,0,0,1-3.178,3.242Z" transform="translate(-40.351 -70.164)" fill="#fff"/>
            <path id="Path_6" data-name="Path 6" d="M85.2,131.465H48.242A3.21,3.21,0,0,1,45,128.287V80.242A3.21,3.21,0,0,1,48.178,77H85.2a3.21,3.21,0,0,1,3.242,3.178v48.045a3.21,3.21,0,0,1-3.178,3.242Z" transform="translate(-41.758 -70.516)" fill="#1aa4c8" opacity="0.15" style="isolation: isolate"/>
            <path id="Path_7" data-name="Path 7" d="M47.781,131.113H43.242A3.21,3.21,0,0,1,40,127.935V79.242A3.21,3.21,0,0,1,43.178,76H84.091a3.21,3.21,0,0,1,3.242,3.178v48.693a3.21,3.21,0,0,1-3.178,3.242H55.561" transform="translate(-40 -70.164)" fill="none" stroke="#1aa4c8" stroke-linecap="round" stroke-linejoin="round" stroke-width="2"/>
            <line id="Line_1" data-name="Line 1" transform="translate(10.548 61.064)" fill="none" stroke="#1aa4c8" stroke-linecap="round" stroke-linejoin="round" stroke-width="2"/>
            <path id="Path_8" data-name="Path 8" d="M58.269,78.023h0A2.3,2.3,0,0,1,56,75.753V69.269A2.3,2.3,0,0,1,58.269,67h0a2.3,2.3,0,0,1,2.269,2.269v6.484A2.3,2.3,0,0,1,58.269,78.023Z" transform="translate(-45.626 -67)" fill="#fff" stroke="#1aa4c8" stroke-linecap="round" stroke-linejoin="round" stroke-width="2"/>
            <line id="Line_2" data-name="Line 2" x2="47.333" transform="translate(0 14.524)" fill="none" stroke="#1aa4c8" stroke-linecap="round" stroke-linejoin="round" stroke-width="2"/>
            <line id="Line_3" data-name="Line 3" x2="29" transform="translate(7.548 32.064)" fill="none" stroke="#1aa4c8" stroke-linecap="round" stroke-linejoin="round" stroke-width="2" opacity="0.5" style="isolation: isolate"/>
            <line id="Line_4" data-name="Line 4" x2="29" transform="translate(7.548 39.064)" fill="none" stroke="#1aa4c8" stroke-linecap="round" stroke-linejoin="round" stroke-width="2" opacity="0.5" style="isolation: isolate"/>
            <line id="Line_5" data-name="Line 5" x2="11.023" transform="translate(7.781 47.462)" fill="none" stroke="#1aa4c8" stroke-linecap="round" stroke-linejoin="round" stroke-width="2" opacity="0.5" style="isolation: isolate"/>
          </g>
          <path id="Path_9" data-name="Path 9" d="M120.091,117.707H79.242A3.21,3.21,0,0,1,76,114.529V63.242A3.21,3.21,0,0,1,79.178,60h40.912a3.21,3.21,0,0,1,3.242,3.178v51.287a3.21,3.21,0,0,1-3.178,3.242Z" transform="translate(-33.206 -41.196)" fill="#1aa4c8" opacity="0.5" style="isolation: isolate"/>
          <circle id="Ellipse_1" data-name="Ellipse 1" cx="2.5" cy="2.5" r="2.5" transform="translate(46 0.406)" fill="none" stroke="#1aa4c8" stroke-linecap="round" stroke-linejoin="round" stroke-width="2"/>
          <circle id="Ellipse_2" data-name="Ellipse 2" cx="2.5" cy="2.5" r="2.5" transform="translate(0 34.406)" fill="none" stroke="#1aa4c8" stroke-linecap="round" stroke-linejoin="round" stroke-width="2"/>
          <ellipse id="Ellipse_3" data-name="Ellipse 3" cx="2.5" cy="3" rx="2.5" ry="3" transform="translate(101 76.406)" fill="none" stroke="#1aa4c8" stroke-linecap="round" stroke-linejoin="round" stroke-width="2"/>
          <path id="Path_10" data-name="Path 10" d="M88.319,52.129h3.89a7.464,7.464,0,0,1,14.913,0h12.968a3.21,3.21,0,0,1,3.242,3.178v51.287a3.21,3.21,0,0,1-3.178,3.242H79.242A3.21,3.21,0,0,1,76,106.658V55.371a3.21,3.21,0,0,1,3.178-3.242h2.657" transform="translate(-33.206 -35.92)" fill="#fff" stroke="#1aa4c8" stroke-linecap="round" stroke-linejoin="round" stroke-width="2"/>
          <line id="Line_6" data-name="Line 6" transform="translate(53 16.406)" fill="none" stroke="#1aa4c8" stroke-linecap="round" stroke-linejoin="round" stroke-width="2"/>
          <line id="Line_7" data-name="Line 7" x2="8" transform="translate(43 78.406)" fill="none" stroke="#1aa4c8" stroke-linecap="round" stroke-linejoin="round" stroke-width="2"/>
          <line id="Line_8" data-name="Line 8" x2="1" transform="translate(54 78.406)" fill="none" stroke="#1aa4c8" stroke-linecap="round" stroke-linejoin="round" stroke-width="2"/>
          <line id="Line_9" data-name="Line 9" x2="35" transform="translate(49 33.406)" fill="none" stroke="#1aa4c8" stroke-linecap="round" stroke-linejoin="round" stroke-width="2"/>
          <line id="Line_10" data-name="Line 10" x2="25.936" transform="translate(48.63 58.161)" fill="none" stroke="#1aa4c8" stroke-linecap="round" stroke-linejoin="round" stroke-width="2"/>
          <line id="Line_11" data-name="Line 11" x2="9.726" transform="translate(74.565 41.368)" fill="none" stroke="#1aa4c8" stroke-linecap="round" stroke-linejoin="round" stroke-width="2"/>
          <line id="Line_12" data-name="Line 12" x2="5.187" transform="translate(74.565 49.732)" fill="none" stroke="#1aa4c8" stroke-linecap="round" stroke-linejoin="round" stroke-width="2"/>
          <path id="Path_12" data-name="Path 12" d="M101,150.242h25.936A8.973,8.973,0,0,0,133.42,147" transform="translate(-41.996 -71.786)" fill="none" stroke="#1aa4c8" stroke-linecap="round" stroke-linejoin="round" stroke-width="2"/>
          <ellipse id="Ellipse_4" data-name="Ellipse 4" cx="3" cy="2.5" rx="3" ry="2.5" transform="translate(64 13.406)" fill="none" stroke="#1aa4c8" stroke-linecap="round" stroke-linejoin="round" stroke-width="2"/>
          <path id="Path_13" data-name="Path 13" d="M105.452,102.429H87.3a1.3,1.3,0,0,1-1.3-1.3V95.3A1.3,1.3,0,0,1,87.3,94h18.155a1.3,1.3,0,0,1,1.3,1.3v5.836A1.3,1.3,0,0,1,105.452,102.429Z" transform="translate(-36.722 -53.151)" fill="none" stroke="#1aa4c8" stroke-linecap="round" stroke-linejoin="round" stroke-width="2"/>
          <path id="Path_14" data-name="Path 14" d="M141.89,55H138a3.21,3.21,0,0,1,3.242,3.178v51.935a3.21,3.21,0,0,1-3.178,3.242h3.827a3.21,3.21,0,0,0,3.242-3.178V58.242A3.21,3.21,0,0,0,141.954,55Z" transform="translate(-55.006 -39.438)" fill="#1aa4c8" opacity="0.15" style="isolation: isolate"/>
        </g>
      </g>
      <circle id="Ellipse_4036" data-name="Ellipse 4036" cx="12" cy="12" r="12" transform="translate(-11997 3488)" fill="#e5edf7"/>
      <path id="Path_74965" data-name="Path 74965" d="M-11974.135,3492.995a12.137,12.137,0,0,1,.467,8.659" transform="translate(1)" fill="none" stroke="#1aa4c8" stroke-linecap="round" stroke-width="2"/>
      <circle id="Ellipse_4034" data-name="Ellipse 4034" cx="12" cy="12" r="12" transform="translate(-11999 3486)" fill="#1aa4c8"/>
      <circle id="Ellipse_4035" data-name="Ellipse 4035" cx="10" cy="10" r="10" transform="translate(-11997 3488)" fill="#fff"/>
      <path id="Path_74964" data-name="Path 74964" d="M-11991.895,3498.344l3.5,3.5,7.258-7.258" fill="none" stroke="#1aa4c8" stroke-linecap="round" stroke-linejoin="round" stroke-width="2"/>
      <path id="Path_74966" data-name="Path 74966" d="M-11974.082,3504.486l-.671,1.141" fill="none" stroke="#1aa4c8" stroke-linecap="round" stroke-width="2"/>
    </g>
    <g id="Group_47272" data-name="Group 47272" transform="translate(0 -660)">
      <rect id="Rectangle_23010-11" data-name="Rectangle 23010" width="48" height="48" transform="translate(464 680)" fill="none"/>
      <path id="Path_84651" data-name="Path 84651" d="M38.479,32.223,22.425,4.931a1.926,1.926,0,0,0-.691-.691,1.946,1.946,0,0,0-2.663.691L3.016,32.223a1.946,1.946,0,0,0,1.677,2.932H36.8a1.945,1.945,0,0,0,1.677-2.932Zm-15.941-2.77a2.22,2.22,0,0,1-.409.642A1.946,1.946,0,0,1,18.8,28.713a1.629,1.629,0,0,1,.156-.737,2.256,2.256,0,0,1,.409-.644,2.037,2.037,0,0,1,2.763,0,2.256,2.256,0,0,1,.409.644,1.829,1.829,0,0,1,0,1.477Zm.156-7.916a1.946,1.946,0,1,1-3.891,0V15.7a1.946,1.946,0,0,1,3.891,0Z" transform="translate(467.252 684.028)" fill="#ffc502"/>
    </g>
    <g id="Group_47370" data-name="Group 47370" transform="translate(16 -694)">
      <circle id="Ellipse_4019" data-name="Ellipse 4019" cx="17" cy="17" r="17" transform="translate(523 721)" fill="#1aa4c8"/>
      <path id="Path_84664" data-name="Path 84664" d="M2788.224-2760l5.168,5.168,9.293-9.293" transform="translate(-2255.724 3498)" fill="none" stroke="#fff" stroke-linecap="round" stroke-linejoin="round" stroke-width="4"/>
    </g>
    <g id="Group_47507" data-name="Group 47507">
      <g id="Group_47506" data-name="Group 47506">
        <circle id="Ellipse_4055" data-name="Ellipse 4055" cx="17" cy="17" r="17" transform="translate(607 27)" fill="#1aa4c8"/>
        <path id="exclamation-triangle" d="M.193,4.3a1.688,1.688,0,1,1,3.374,0l-.385,7.484a1.3,1.3,0,0,1-2.6,0ZM3.76,16.766a1.88,1.88,0,1,1-1.88-1.88A1.88,1.88,0,0,1,3.76,16.766Z" transform="translate(625.88 54.431) rotate(-180)" fill="#fff" fill-rule="evenodd"/>
      </g>
    </g>
    <g id="Component_115_1" data-name="Component 115  1" transform="translate(471 95)">
      <rect id="Rectangle_24143" data-name="Rectangle 24143" width="34" height="34" rx="6" fill="#1aa4c8" opacity="0.2"/>
      <g id="Group_47514" data-name="Group 47514" transform="translate(-1974 -430)">
        <path id="Path_384" data-name="Path 384" d="M354.8,2988l-5.44-4.08a1.686,1.686,0,0,0-1.92,0L342,2988v-14.4a1.6,1.6,0,0,1,1.6-1.6h9.6a1.6,1.6,0,0,1,1.6,1.6Z" transform="translate(1643 -2533)" fill="none" stroke="#1aa4c8" stroke-linecap="round" stroke-linejoin="round" stroke-miterlimit="10" stroke-width="1"/>
        <path id="Path_385" data-name="Path 385" d="M346,2978h6.4" transform="translate(1642.2 -2534.2)" fill="none" stroke="#1aa4c8" stroke-linecap="round" stroke-linejoin="round" stroke-miterlimit="10" stroke-width="1"/>
      </g>
    </g>
    <g id="Group_47515" data-name="Group 47515" transform="translate(30.242 -197.11)">
      <g id="Group_47524" data-name="Group 47524" transform="translate(-222.242 -400.89)">
        <path id="Path_84766" data-name="Path 84766" d="M764.842,688.421a14.421,14.421,0,0,0-28.842,0v10.75h4.719V688.945a9.7,9.7,0,0,1,19.4,0v10.226h4.72Z" transform="translate(-2.378 12)" fill="#8dd5e8"/>
        <path id="Path_84765" data-name="Path 84765" d="M747.781,722v28.317h-1.049A15.731,15.731,0,0,1,731,734.586V724.1a2.1,2.1,0,0,1,2.1-2.1Z" transform="translate(0 -17.122)" fill="#1aa4c8"/>
        <path id="Path_84767" data-name="Path 84767" d="M779.781,724.1v10.488a15.731,15.731,0,0,1-15.732,15.732H763V722h14.683A2.1,2.1,0,0,1,779.781,724.1Z" transform="translate(-15.219 -17.122)" fill="#44b8d6"/>
        <path id="Path_84768" data-name="Path 84768" d="M793.1,722v2.1A2.1,2.1,0,0,0,791,722Z" transform="translate(-28.536 -17.122)" fill="none"/>
      </g>
      <path id="Polygon_49" data-name="Polygon 49" d="M5.5,0,11,10H0Z" transform="translate(520 312)" fill="#fff"/>
      <path id="Path_84651-2" data-name="Path 84651" d="M18.818,16.678,11.6,4.4a.866.866,0,0,0-.311-.311.875.875,0,0,0-1.2.311L2.869,16.678A.875.875,0,0,0,3.623,18H18.064a.875.875,0,0,0,.754-1.319Zm-7.17-1.246a1,1,0,0,1-.184.289.875.875,0,0,1-1.5-.621.732.732,0,0,1,.07-.332,1.014,1.014,0,0,1,.184-.29.916.916,0,0,1,1.242,0,1.014,1.014,0,0,1,.184.29.823.823,0,0,1,0,.664Zm.07-3.56a.875.875,0,1,1-1.75,0V9.246a.875.875,0,1,1,1.75,0Z" transform="translate(514.695 305.607)" fill="#ffc502"/>
    </g>
    <g id="Group_47525" data-name="Group 47525" transform="translate(-486.823 253.554)">
      <g id="Group_47507-2" data-name="Group 47507" transform="translate(2893 -5369.554)">
        <rect id="Rectangle_24252" data-name="Rectangle 24252" width="225.646" height="145.934" rx="10" transform="translate(-2223 5580)" fill="#c9c9c9"/>
        <rect id="Rectangle_24253" data-name="Rectangle 24253" width="201.733" height="123.86" transform="translate(-2211.35 5591.037)" fill="#f3f3f3"/>
        <path id="Path_84757" data-name="Path 84757" d="M86.334.064h85.844L85.844,123.885H0Z" transform="translate(-2211.35 5591.012)" fill="#e6e8e8"/>
        <path id="Path_84758" data-name="Path 84758" d="M86.334.064h23.3L23.3,123.885H0Z" transform="translate(-2119.374 5591.012)" fill="#e6e8e8"/>
        <path id="Path_84759" data-name="Path 84759" d="M3.679,0H57.638l3.679,24.527H0Z" transform="translate(-2141.448 5725.935)" fill="#d6d6d6"/>
        <path id="Path_84760" data-name="Path 84760" d="M4.84,0H58.8l1.84,12.263H3Z" transform="translate(-2142.609 5725.935)" fill="#a8a8a8"/>
        <path id="Rectangle_24254" data-name="Rectangle 24254" d="M5.519,0H82.778A5.519,5.519,0,0,1,88.3,5.519v0a0,0,0,0,1,0,0H0a0,0,0,0,1,0,0v0A5.519,5.519,0,0,1,5.519,0Z" transform="translate(-2154.325 5750.461)" fill="#c9c9c9"/>
      </g>
      <g id="Group_47526" data-name="Group 47526" transform="translate(245.242 -43.8)">
        <g id="Group_47524-2" data-name="Group 47524" transform="translate(508.758 285.11)">
          <path id="Path_84766-2" data-name="Path 84766" d="M785.055,698.528a24.528,24.528,0,0,0-49.055,0v18.284h8.027V699.419a16.5,16.5,0,0,1,33,0v17.392h8.027Z" transform="translate(-731.541 -674)" fill="#8dd5e8"/>
          <path id="Path_84765-2" data-name="Path 84765" d="M759.542,722v48.163h-1.784A26.756,26.756,0,0,1,731,743.406V725.568A3.566,3.566,0,0,1,734.568,722Z" transform="translate(-731 -689.891)" fill="#1aa4c8"/>
          <path id="Path_84767-2" data-name="Path 84767" d="M791.542,725.568v17.839a26.756,26.756,0,0,1-26.757,26.757H763V722h24.974A3.566,3.566,0,0,1,791.542,725.568Z" transform="translate(-734.459 -689.891)" fill="#44b8d6"/>
          <path id="Path_84768-2" data-name="Path 84768" d="M794.568,722v3.567A3.566,3.566,0,0,0,791,722Z" transform="translate(-737.485 -689.891)" fill="none"/>
        </g>
        <path id="Polygon_49-2" data-name="Polygon 49" d="M10.1,0l10.1,18.314H0Z" transform="translate(527.254 334.385)" fill="#fff"/>
        <path id="Path_84651-3" data-name="Path 84651" d="M32.464,27.467,19.112,4.77a1.6,1.6,0,0,0-.574-.574,1.618,1.618,0,0,0-2.215.574L2.971,27.467a1.618,1.618,0,0,0,1.395,2.438h26.7a1.618,1.618,0,0,0,1.395-2.438Zm-13.258-2.3a1.846,1.846,0,0,1-.34.534A1.618,1.618,0,0,1,16.1,24.548a1.354,1.354,0,0,1,.129-.613,1.876,1.876,0,0,1,.34-.536,1.694,1.694,0,0,1,2.3,0,1.876,1.876,0,0,1,.34.536,1.521,1.521,0,0,1,0,1.228Zm.129-6.584a1.618,1.618,0,0,1-3.236,0V13.725a1.618,1.618,0,1,1,3.236,0Z" transform="translate(519.581 325.827)" fill="#ffc502"/>
      </g>
    </g>
  </g>
</svg>
